<svg xmlns="http://www.w3.org/2000/svg" version="1.1" class="name-loading"
xmlns:xlink="http://www.w3.org/1999/xlink">
<g fill="none" fill-rule="evenodd" stroke="currentColor" stroke-width="20" class="lines"
  transform="translate(0.000000,505.000000) scale(0.100000,-0.100000)">
  <path d="M3935 4940 c3 -5 33 -10 66 -10 l59 0 -2 -882 -3 -883 -57 -3 c-32
    -2 -58 -7 -58 -12 0 -16 1683 -13 1698 2 9 9 12 74 12 230 0 187 -2 218 -15
    218 -10 0 -15 -10 -15 -27 -1 -125 -108 -291 -228 -352 -110 -56 -108 -56
    -522 -56 l-385 0 0 880 0 880 63 3 c34 2 62 7 62 12 0 6 -132 10 -341 10 -224
    0 -338 -3 -334 -10z m513 -22 c19 -19 17 -1731 -2 -1747 -9 -8 -66 -11 -182
    -9 l-169 3 -3 870 c-1 479 0 876 3 883 6 17 336 17 353 0z m1170 -1634 l-3
    -119 -119 0 c-87 0 -120 3 -123 13 -3 6 1 12 7 12 30 0 140 93 179 151 23 34
    41 66 41 72 0 8 3 8 10 1 7 -7 10 -57 8 -130z" />
  <path d="M5500 4940 c0 -5 28 -10 63 -12 l62 -3 6 -560 c7 -551 9 -590 44
    -690 155 -448 677 -658 1106 -445 220 109 369 302 421 545 6 29 13 276 17 600
    l6 550 63 3 c34 2 62 7 62 12 0 6 -60 10 -145 10 -85 0 -145 -4 -145 -10 0 -5
    28 -10 63 -12 l62 -3 3 -550 c2 -521 1 -554 -18 -630 -83 -333 -381 -573 -717
    -578 -96 -1 -135 17 -210 95 -62 67 -115 173 -147 300 -45 178 -48 220 -44
    808 l3 555 63 3 c34 2 62 7 62 12 0 6 -131 10 -340 10 -209 0 -340 -4 -340
    -10z m518 -22 c9 -9 12 -149 12 -569 0 -550 5 -651 35 -764 47 -172 88 -255
    173 -348 24 -27 42 -50 40 -53 -10 -9 -128 29 -203 66 -176 87 -314 248 -386
    450 -23 65 -24 68 -27 634 -1 313 -1 575 2 583 7 18 336 19 354 1z" />
  <path d="M7420 4940 c0 -5 28 -10 63 -12 l62 -3 0 -880 0 -880 -63 -3 c-36 -2
    -60 -7 -57 -12 8 -13 665 -13 665 0 0 5 -26 10 -57 12 l-58 3 -3 883 -2 882
    60 0 c33 0 60 4 60 10 0 6 -118 10 -335 10 -205 0 -335 -4 -335 -10z m515
    -895 l0 -880 -169 -3 c-116 -2 -173 1 -182 9 -12 10 -14 153 -14 879 0 476 3
    870 7 874 4 3 86 5 182 4 l176 -3 0 -880z" />
  <path d="M8465 4940 c-200 -57 -323 -184 -372 -384 -41 -167 48 -376 204 -479
    40 -26 148 -76 263 -122 107 -42 209 -83 225 -91 17 -7 138 -56 269 -109 132
    -53 256 -108 277 -122 43 -29 82 -81 99 -137 15 -48 8 -141 -14 -184 -24 -47
    -82 -101 -135 -125 -44 -21 -57 -22 -320 -19 -290 3 -327 8 -395 54 -103 71
    -195 193 -246 332 -12 31 -26 56 -32 56 -14 0 -198 -181 -198 -195 0 -26 145
    -129 252 -179 172 -81 312 -100 671 -93 172 3 256 9 292 19 184 55 322 206
    356 390 25 137 -27 293 -136 404 -72 74 -94 85 -400 209 -132 53 -253 102
    -270 110 -16 7 -60 25 -98 39 -37 14 -82 32 -100 40 -17 8 -74 31 -125 52
    -117 47 -173 94 -201 170 -39 104 -19 197 60 276 75 74 106 80 427 76 l267 -3
    60 -29 c122 -60 204 -163 289 -358 14 -32 28 -58 32 -58 12 0 194 183 194 196
    0 36 -188 165 -305 210 -150 57 -147 56 -515 60 -190 1 -358 -1 -375 -6z m881
    -74 c106 -43 284 -159 284 -185 0 -12 -138 -145 -154 -149 -7 -2 -20 16 -30
    41 -31 82 -115 204 -183 267 l-68 63 45 -6 c25 -3 73 -17 106 -31z m-986 -5
    c0 -5 -6 -14 -14 -20 -27 -22 -57 -111 -58 -170 -2 -123 79 -229 211 -276 23
    -8 56 -21 74 -29 29 -13 277 -114 642 -261 186 -75 233 -101 295 -164 195
    -200 170 -520 -54 -683 -59 -43 -70 -36 -34 22 25 41 32 64 36 124 5 86 -6
    129 -51 185 -49 61 -87 83 -293 166 -104 41 -198 79 -209 84 -85 36 -145 60
    -325 132 -113 46 -227 97 -255 114 -224 142 -285 421 -140 640 52 78 175 174
    175 136z m-52 -1336 c33 -86 108 -198 175 -262 38 -35 66 -67 63 -70 -9 -9
    -94 17 -172 52 -81 37 -162 88 -219 137 l-40 35 80 76 c44 42 84 75 89 74 5
    -2 15 -21 24 -42z" />
  <path d="M95 2750 c3 -5 30 -10 59 -10 28 0 57 -5 64 -12 17 -17 17 -1749 0
    -1766 -7 -7 -36 -12 -66 -12 -33 0 -51 -4 -47 -10 8 -14 665 -14 665 0 0 6
    -24 10 -54 10 -33 0 -58 5 -65 14 -8 9 -10 133 -9 437 l3 424 378 3 377 2 -2
    -437 -3 -438 -63 -3 c-36 -2 -60 -7 -57 -12 8 -14 665 -13 665 0 0 6 -24 10
    -53 10 -29 0 -58 5 -65 12 -17 17 -17 1749 0 1766 7 7 38 12 70 12 32 0 58 4
    58 10 0 6 -120 10 -340 10 -209 0 -340 -4 -340 -10 0 -5 28 -10 63 -12 l62 -3
    0 -435 0 -435 -375 0 -375 0 0 435 0 435 63 3 c34 2 62 7 62 12 0 6 -132 10
    -341 10 -224 0 -338 -3 -334 -10z m523 -894 c1 -641 -1 -882 -9 -892 -9 -11
    -48 -14 -169 -14 -87 0 -165 3 -174 6 -14 6 -16 93 -16 888 0 486 3 886 7 890
    4 3 86 5 182 4 l176 -3 3 -879z m1170 -5 c2 -701 0 -886 -10 -893 -22 -13
    -332 -10 -346 4 -18 18 -17 1749 0 1766 9 9 59 12 183 10 l170 -3 3 -884z" />
  <path d="M2000 2751 c0 -6 28 -11 63 -13 l62 -3 0 -890 0 -890 -63 -3 c-36 -2
    -60 -7 -57 -12 7 -11 1672 -14 1699 -4 14 5 16 36 16 236 0 179 -3 229 -12
    226 -7 -3 -14 -20 -16 -39 -10 -140 -104 -284 -222 -344 -119 -60 -112 -60
    -530 -60 l-385 0 -3 438 -2 437 182 -2 183 -3 3 -63 c2 -36 7 -60 12 -57 13 8
    13 285 0 285 -5 0 -10 -28 -12 -62 l-3 -63 -180 0 -180 0 0 435 0 435 335 3
    c387 3 463 -3 555 -46 127 -60 230 -199 244 -330 3 -31 12 -57 19 -60 10 -3
    12 44 10 225 l-3 228 -857 3 c-542 1 -858 -1 -858 -7z m515 -906 l0 -890 -169
    -3 c-116 -2 -173 1 -182 9 -19 16 -21 1748 -2 1767 9 9 59 12 183 10 l170 -3
    0 -890z m1179 879 c9 -24 7 -207 -3 -223 -7 -10 -18 0 -43 40 -40 63 -105 125
    -165 159 -23 13 -40 27 -37 32 3 4 58 8 124 8 98 0 119 -3 124 -16z m5 -1650
    c1 -75 -3 -105 -13 -113 -17 -14 -228 -11 -233 4 -1 6 22 26 53 45 64 39 126
    106 157 165 18 35 21 38 28 20 4 -11 8 -66 8 -121z" />
  <path d="M3780 2750 c0 -5 28 -10 63 -12 l62 -3 0 -890 0 -890 -63 -3 c-36 -2
    -60 -7 -57 -12 8 -13 275 -13 275 0 0 6 -24 10 -53 10 -29 0 -58 5 -65 12 -18
    18 -17 1721 1 1716 11 -4 83 -116 286 -449 51 -85 119 -194 149 -244 31 -49
    83 -135 117 -190 34 -55 87 -140 117 -190 115 -189 303 -493 355 -577 29 -47
    61 -89 69 -92 31 -12 279 -7 292 6 9 9 12 223 12 900 l0 887 62 3 c38 2 63 8
    66 16 3 9 -29 12 -137 12 -77 0 -142 -4 -145 -9 -9 -13 19 -21 75 -21 l49 0 0
    -726 c0 -486 -3 -723 -10 -719 -12 7 -50 66 -137 210 -62 103 -117 192 -288
    470 -54 88 -184 300 -288 470 -105 171 -196 313 -201 317 -17 12 -606 10 -606
    -2z m602 -27 c8 -10 61 -94 118 -188 56 -93 126 -208 155 -255 29 -47 131
    -213 227 -370 240 -392 234 -382 306 -500 135 -219 122 -185 122 -325 l0 -125
    -138 0 -138 0 -41 68 c-22 37 -132 216 -243 397 -112 182 -222 360 -244 397
    -84 138 -260 425 -306 498 -120 191 -240 393 -240 406 0 12 36 14 203 14 182
    0 206 -2 219 -17z" />
  <path d="M5540 2751 c0 -6 28 -11 63 -13 l62 -3 0 -890 0 -890 -63 -3 c-36 -2
    -60 -7 -57 -12 8 -13 665 -13 665 0 0 5 -26 10 -57 12 l-58 3 -3 299 c-2 233
    1 301 10 308 22 13 272 10 290 -4 9 -7 76 -110 149 -228 235 -382 240 -390
    262 -395 41 -10 577 -1 577 10 0 6 -30 12 -66 15 l-66 5 -80 130 c-43 72 -101
    166 -127 210 -27 44 -76 125 -110 180 -33 54 -61 104 -61 111 0 6 15 17 33 25
    106 43 226 154 285 264 70 132 88 316 44 450 -66 196 -200 327 -412 403 -39
    14 -127 16 -662 19 -409 3 -618 1 -618 -6z m515 -906 l0 -890 -169 -3 c-116
    -2 -173 1 -182 9 -20 16 -21 1764 -1 1772 6 3 89 5 182 4 l170 -2 0 -890z
    m623 884 c32 -11 92 -88 92 -119 0 -9 4 -20 9 -25 12 -13 38 -123 51 -215 12
    -82 14 -322 4 -391 -25 -177 -67 -302 -121 -355 l-34 -34 -294 0 -295 0 0 568
    c0 313 3 572 7 575 11 12 547 8 581 -4z m190 -34 c220 -89 363 -298 363 -528
    0 -97 -19 -177 -63 -267 -43 -90 -159 -204 -251 -248 -69 -33 -162 -60 -173
    -50 -3 3 9 31 26 61 94 167 124 573 61 833 -20 83 -63 188 -81 199 -6 3 -10
    13 -10 22 0 20 44 12 128 -22z m107 -1327 c76 -123 162 -261 191 -308 29 -46
    50 -88 48 -92 -3 -4 -98 -8 -212 -8 l-208 0 -34 57 c-19 32 -80 130 -134 218
    -179 289 -188 306 -182 320 4 12 34 15 158 16 84 1 167 5 183 9 17 4 35 8 41
    9 6 0 73 -99 149 -221z" />
  <path d="M7445 2750 c3 -5 32 -10 65 -10 43 0 59 -4 64 -16 3 -9 6 -406 6
    -883 0 -661 -3 -870 -12 -879 -7 -7 -36 -12 -65 -12 -29 0 -53 -4 -53 -10 0
    -14 657 -14 665 0 4 6 -14 10 -47 10 -30 0 -59 5 -66 12 -9 9 -12 218 -12 879
    0 477 3 874 6 883 5 12 21 16 65 16 33 0 59 4 59 10 0 6 -120 10 -341 10 -224
    0 -338 -3 -334 -10z m523 -894 c1 -641 -1 -882 -9 -892 -9 -11 -48 -14 -169
    -14 -87 0 -165 3 -174 6 -14 6 -16 93 -16 888 0 486 3 886 7 890 4 3 86 5 182
    4 l176 -3 3 -879z" />
  <path d="M8920 2754 c-342 -43 -644 -283 -758 -601 -94 -259 -61 -548 89 -792
    l52 -84 -31 -56 c-57 -105 -77 -183 -76 -306 1 -87 5 -124 23 -175 97 -280
    348 -454 631 -437 191 12 288 65 496 269 169 165 212 192 304 192 158 -2 263
    -149 219 -309 -15 -54 -93 -127 -167 -156 -112 -44 -307 -24 -466 46 -31 14
    -62 23 -67 20 -15 -10 -11 -261 4 -274 10 -8 38 -8 103 0 220 26 421 123 560
    271 86 91 124 185 124 308 0 117 -34 206 -110 293 -54 61 -109 99 -188 127
    l-63 23 72 71 c152 149 233 294 274 489 19 88 19 266 0 355 -63 301 -287 561
    -579 672 -114 43 -328 69 -446 54z m258 -55 c149 -74 267 -255 325 -499 42
    -175 52 -299 37 -476 -31 -381 -191 -674 -410 -751 -117 -42 -263 7 -369 123
    -71 78 -163 251 -165 312 l-1 37 60 3 c33 2 80 -2 105 -8 58 -15 143 -56 166
    -81 16 -18 44 -26 44 -13 0 10 -50 47 -100 74 -60 34 -143 52 -225 49 -48 -2
    -69 2 -75 11 -39 63 -58 452 -31 610 52 297 189 533 355 611 52 25 74 29 142
    29 70 0 89 -4 142 -31z m-338 4 c-1 -5 -18 -21 -38 -38 -115 -90 -217 -278
    -266 -485 -54 -232 -45 -546 23 -757 51 -159 135 -299 227 -382 32 -28 54 -54
    50 -58 -9 -10 -155 41 -221 77 -130 70 -244 167 -320 275 -291 408 -186 972
    231 1247 123 81 316 155 314 121z m494 -18 c274 -92 482 -309 573 -598 23 -72
    26 -100 27 -232 1 -129 -2 -161 -22 -230 -27 -92 -66 -179 -118 -262 -45 -71
    -203 -230 -236 -237 -44 -8 -202 -26 -205 -22 -2 2 17 34 42 72 167 253 219
    672 129 1031 -13 54 -28 107 -33 118 -83 185 -144 279 -222 340 -66 52 -48 58
    65 20z m-946 -1491 c69 -68 196 -149 292 -188 102 -41 200 -62 333 -71 53 -4
    97 -10 97 -14 0 -12 -165 -169 -210 -198 -82 -54 -190 -78 -284 -63 -234 38
    -391 267 -332 485 16 61 33 95 47 95 6 0 32 -21 57 -46z m1316 -148 c141 -72
    226 -199 234 -351 4 -80 -5 -143 -22 -148 -5 -1 -14 20 -21 46 -17 68 -61 125
    -124 160 -46 26 -64 30 -126 30 -99 0 -142 -26 -307 -189 -174 -171 -238 -214
    -376 -250 -74 -20 -221 -20 -295 0 -213 56 -378 218 -431 423 -20 78 -22 256
    -2 272 11 9 14 1 19 -46 22 -211 245 -381 472 -357 105 11 191 59 307 171 279
    268 307 284 489 280 102 -2 110 -4 183 -41z m-362 -763 c70 -22 102 -27 200
    -27 65 -1 118 -2 118 -2 0 -1 -22 -16 -49 -34 -91 -58 -269 -110 -377 -110
    l-44 0 0 108 c0 60 3 111 6 115 4 3 19 0 35 -8 15 -8 65 -27 111 -42z" />
  <path d="M9940 2750 c0 -5 28 -10 63 -12 l62 -3 6 -575 c6 -594 6 -597 51
    -717 50 -135 165 -283 281 -362 198 -135 451 -178 677 -116 250 69 468 277
    538 515 11 36 23 76 28 90 4 14 10 281 13 595 l6 570 63 3 c34 2 62 7 62 12 0
    6 -60 10 -145 10 -85 0 -145 -4 -145 -10 0 -5 28 -10 63 -12 l62 -3 3 -550 c2
    -371 -1 -569 -8 -610 -64 -348 -375 -611 -730 -617 -93 -1 -137 19 -207 95
    -61 67 -114 173 -146 292 -46 168 -49 214 -45 820 l3 570 63 3 c34 2 62 7 62
    12 0 6 -131 10 -340 10 -209 0 -340 -4 -340 -10z m521 -610 c5 -484 9 -610 22
    -675 38 -194 112 -360 196 -439 17 -17 31 -33 31 -38 0 -16 -52 -7 -128 22
    -256 99 -448 343 -482 612 -15 126 -14 1105 3 1111 6 3 89 5 182 4 l170 -2 6
    -595z" />
  <path d="M11860 2750 c0 -5 28 -10 63 -12 l62 -3 0 -890 0 -890 -58 -3 c-33
    -2 -55 -7 -52 -13 7 -10 1662 -13 1689 -3 14 5 16 36 16 235 0 139 -4 229 -10
    229 -8 0 -12 -13 -26 -106 -13 -87 -103 -212 -194 -269 -103 -65 -119 -67
    -533 -72 -287 -4 -381 -2 -392 7 -13 11 -15 77 -15 441 l0 429 185 0 185 0 0
    -66 c0 -41 4 -63 10 -59 13 8 13 285 0 285 -5 0 -10 -28 -12 -62 l-3 -63 -180
    0 -180 0 0 435 0 435 345 3 c190 1 376 -2 413 -7 80 -11 175 -54 233 -105 77
    -66 144 -193 144 -271 0 -17 7 -40 15 -51 13 -17 14 7 15 219 l0 237 -860 0
    c-538 0 -860 -4 -860 -10z m518 -22 c17 -17 17 -1749 0 -1766 -13 -13 -311
    -18 -342 -6 -14 6 -16 93 -16 888 0 486 3 886 7 889 12 13 338 8 351 -5z
    m1180 -107 c1 -63 -1 -118 -6 -123 -6 -6 -20 8 -35 34 -33 57 -100 124 -159
    160 -26 16 -48 34 -48 39 0 6 50 8 123 7 l122 -3 3 -114z m2 -1535 c0 -85 -4
    -116 -14 -125 -17 -14 -228 -11 -233 4 -1 6 16 21 39 34 62 35 127 100 160
    158 17 29 34 50 39 47 5 -3 9 -56 9 -118z" />
</g>
</svg>