<?xml version="1.0" encoding="UTF-8"?>
<svg xmlns="http://www.w3.org/2000/svg" version="1.1" width="1600px" height="314px" style="fill-rule:evenodd;" xmlns:xlink="http://www.w3.org/1999/xlink">
<path style="opacity:0.492" fill="#9b9b9b" d="M 962.5,1.5 C 954.003,2.36233 945.337,3.02899 936.5,3.5C 934.304,3.49535 932.304,3.16202 930.5,2.5C 941.136,0.624059 951.803,0.290726 962.5,1.5 Z"/>
<path style="opacity:0.149" fill="#d6d6d6" d="M 966.5,1.5 C 969.385,1.1936 972.052,1.52693 974.5,2.5C 973.081,3.45115 971.415,3.78448 969.5,3.5C 968.5,2.83333 967.5,2.16667 966.5,1.5 Z"/>
<path style="opacity:0.126" fill="#e0e0e0" d="M 928.5,2.5 C 927.448,4.25605 925.781,4.92271 923.5,4.5C 922.833,4.5 922.167,4.5 921.5,4.5C 923.279,2.65649 925.612,1.98983 928.5,2.5 Z"/>
<path style="opacity:0.977" fill="#050505" d="M 962.5,1.5 C 962.833,1.5 963.167,1.5 963.5,1.5C 964.918,3.30794 966.918,3.97461 969.5,3.5C 971.415,3.78448 973.081,3.45115 974.5,2.5C 974.833,2.5 975.167,2.5 975.5,2.5C 975.5,3.5 975.5,4.5 975.5,5.5C 978.86,5.61587 982.193,5.9492 985.5,6.5C 986.492,6.32842 987.158,6.66175 987.5,7.5C 990.003,8.37051 992.67,9.03718 995.5,9.5C 997.435,10.1495 999.435,10.4828 1001.5,10.5C 1001.83,10.5 1002.17,10.5 1002.5,10.5C 1007.76,13.8964 1013.09,17.3964 1018.5,21C 1020.15,21.6077 1021.82,22.1077 1023.5,22.5C 1023.33,23.4916 1023.66,24.1583 1024.5,24.5C 1025.21,25.404 1026.21,25.7373 1027.5,25.5C 1027.3,19.4549 1027.64,13.4549 1028.5,7.5C 1034.14,4.90991 1039.81,4.90991 1045.5,7.5C 1045.5,7.83333 1045.5,8.16667 1045.5,8.5C 1046.83,34.1667 1046.83,59.8333 1045.5,85.5C 1043.04,87.1326 1040.37,88.4659 1037.5,89.5C 1034.39,88.7789 1031.39,87.7789 1028.5,86.5C 1028.24,75.15 1027.24,64.15 1025.5,53.5C 1025.5,51.5 1024.5,50.5 1022.5,50.5C 1022.5,48.5 1021.5,47.5 1019.5,47.5C 1018.28,43.8545 1015.94,41.0212 1012.5,39C 1008.47,35.4861 1003.8,33.3194 998.5,32.5C 998.167,32.5 997.833,32.5 997.5,32.5C 995.362,30.5767 992.862,28.91 990,27.5C 989.235,27.5699 988.735,27.9033 988.5,28.5C 988.167,28.5 987.833,28.5 987.5,28.5C 987.53,27.5028 987.03,26.8361 986,26.5C 974.953,22.5069 963.453,20.8402 951.5,21.5C 943.798,21.5122 936.131,22.0122 928.5,23C 924.073,23.9515 920.073,25.4515 916.5,27.5C 911.513,28.4928 906.846,30.3262 902.5,33C 901.748,33.6708 901.414,34.5041 901.5,35.5C 901.167,35.5 900.833,35.5 900.5,35.5C 898.027,35.0882 896.694,36.0882 896.5,38.5C 896.167,38.5 895.833,38.5 895.5,38.5C 891.911,39.0922 889.578,41.0922 888.5,44.5C 887.078,44.7086 885.745,45.2086 884.5,46C 880.584,49.7308 878.251,54.2308 877.5,59.5C 876.195,61.3972 875.529,63.7305 875.5,66.5C 875.667,68.8333 875.833,71.1667 876,73.5C 876.886,76.0929 878.386,78.0929 880.5,79.5C 882.499,84.9963 885.832,89.4963 890.5,93C 897.86,98.4072 905.86,102.574 914.5,105.5C 915.416,105.457 916.083,105.124 916.5,104.5C 916.833,104.5 917.167,104.5 917.5,104.5C 918.552,106.256 920.219,106.923 922.5,106.5C 922.833,106.5 923.167,106.5 923.5,106.5C 925.981,109.571 929.314,111.237 933.5,111.5C 938.916,113.586 944.582,114.919 950.5,115.5C 951.167,115.5 951.833,115.5 952.5,115.5C 952.821,117.048 953.821,117.715 955.5,117.5C 959.169,119.41 963.169,121.076 967.5,122.5C 969.998,123.63 972.332,123.63 974.5,122.5C 974.833,122.5 975.167,122.5 975.5,122.5C 975.5,123.5 975.5,124.5 975.5,125.5C 978.727,125.676 981.727,126.343 984.5,127.5C 986.657,128.407 988.99,129.073 991.5,129.5C 992.167,129.5 992.833,129.5 993.5,129.5C 995.461,131.113 997.794,132.113 1000.5,132.5C 1002.86,132.674 1005.19,133.007 1007.5,133.5C 1007.83,133.5 1008.17,133.5 1008.5,133.5C 1009.08,135.257 1010.25,136.59 1012,137.5C 1015.49,138.982 1018.99,140.482 1022.5,142C 1026.29,146.207 1030.62,148.707 1035.5,149.5C 1035.83,149.5 1036.17,149.5 1036.5,149.5C 1036.35,150.552 1036.52,151.552 1037,152.5C 1038.65,154.21 1040.48,155.544 1042.5,156.5C 1042.5,158.5 1043.5,159.5 1045.5,159.5C 1045.5,161.5 1046.5,162.5 1048.5,162.5C 1048.89,164.179 1049.39,165.846 1050,167.5C 1056.35,174.492 1059.51,182.826 1059.5,192.5C 1059.69,207.851 1059.36,223.184 1058.5,238.5C 1057.84,241.455 1057.51,244.455 1057.5,247.5C 1055.39,248.784 1054.39,250.784 1054.5,253.5C 1052.59,254.486 1051.59,256.152 1051.5,258.5C 1049.55,259.035 1048.55,260.368 1048.5,262.5C 1048.5,262.833 1048.5,263.167 1048.5,263.5C 1042.76,267.735 1037.43,272.568 1032.5,278C 1024,283.05 1015.5,288.216 1007,293.5C 1000.31,296.17 993.477,298.336 986.5,300C 985.944,300.383 985.611,300.883 985.5,301.5C 980.833,301.833 976.167,302.167 971.5,302.5C 953.66,305.662 935.66,306.329 917.5,304.5C 910.212,301.707 902.545,300.04 894.5,299.5C 891.873,298.908 889.206,298.575 886.5,298.5C 884.794,296.464 882.461,295.464 879.5,295.5C 879.167,295.5 878.833,295.5 878.5,295.5C 877.216,293.386 875.216,292.386 872.5,292.5C 866.117,287.154 859.117,282.488 851.5,278.5C 851.167,277.833 850.833,277.167 850.5,276.5C 850.44,275.957 850.107,275.624 849.5,275.5C 848.773,283.525 848.106,291.525 847.5,299.5C 842.975,306.538 837.641,307.205 831.5,301.5C 830.365,272.19 830.199,242.857 831,213.5C 831.513,212.473 832.013,211.473 832.5,210.5C 837.161,207.835 841.828,207.835 846.5,210.5C 847.11,211.391 847.443,212.391 847.5,213.5C 848.308,223.09 848.808,232.756 849,242.5C 849.383,243.056 849.883,243.389 850.5,243.5C 851.931,246.701 853.597,249.701 855.5,252.5C 858.1,257.353 861.434,261.686 865.5,265.5C 870.017,268.06 874.35,270.893 878.5,274C 881.022,275.341 883.689,276.174 886.5,276.5C 886.833,276.5 887.167,276.5 887.5,276.5C 889.09,278.821 891.423,279.821 894.5,279.5C 894.833,279.5 895.167,279.5 895.5,279.5C 896.691,281.522 898.524,282.855 901,283.5C 904.329,284.641 907.495,284.641 910.5,283.5C 910.833,283.5 911.167,283.5 911.5,283.5C 913.475,285.09 915.808,286.257 918.5,287C 930.162,287.5 941.829,287.667 953.5,287.5C 958.859,287.33 964.192,286.83 969.5,286C 970.056,285.617 970.389,285.117 970.5,284.5C 972.38,284.771 973.713,284.104 974.5,282.5C 975.167,282.5 975.833,282.5 976.5,282.5C 982.35,281.996 988.016,280.662 993.5,278.5C 994.713,278.253 995.38,277.586 995.5,276.5C 1009.38,272.633 1017.05,263.633 1018.5,249.5C 1017.6,240.883 1014.43,233.216 1009,226.5C 998.357,215.825 985.69,208.492 971,204.5C 965.713,204.013 960.713,202.68 956,200.5C 954.93,200.528 954.097,200.861 953.5,201.5C 953.167,201.5 952.833,201.5 952.5,201.5C 952.5,200.5 952.5,199.5 952.5,198.5C 944.814,196.494 937.147,194.328 929.5,192C 927.613,191.22 925.946,191.387 924.5,192.5C 924.167,192.5 923.833,192.5 923.5,192.5C 923.5,191.5 923.5,190.5 923.5,189.5C 919.985,188.761 916.652,188.761 913.5,189.5C 913.167,189.5 912.833,189.5 912.5,189.5C 912.5,188.5 912.5,187.5 912.5,186.5C 909.672,185.503 907.005,185.503 904.5,186.5C 904.167,186.5 903.833,186.5 903.5,186.5C 903.179,184.952 902.179,184.285 900.5,184.5C 900.167,184.5 899.833,184.5 899.5,184.5C 896.503,181.751 892.836,179.917 888.5,179C 884.152,175.739 879.818,172.572 875.5,169.5C 874.167,168.167 872.833,166.833 871.5,165.5C 869.468,164.952 868.468,163.619 868.5,161.5C 866.678,161.169 865.011,160.502 863.5,159.5C 863.5,159.167 863.5,158.833 863.5,158.5C 860.855,153.218 857.688,148.218 854,143.5C 852.82,140.479 851.654,137.479 850.5,134.5C 850.125,132.302 849.458,130.302 848.5,128.5C 847.54,110.534 847.207,92.5343 847.5,74.5C 847.5,74.1667 847.5,73.8333 847.5,73.5C 849.323,70.984 850.323,67.984 850.5,64.5C 851.092,61.8728 851.425,59.2062 851.5,56.5C 852.376,56.6309 853.043,56.2975 853.5,55.5C 856.856,49.8191 860.189,44.1524 863.5,38.5C 863.5,38.1667 863.5,37.8333 863.5,37.5C 868.197,35.3493 872.197,32.1826 875.5,28C 882.798,23.869 889.465,19.0356 895.5,13.5C 898.216,13.3215 900.883,12.8215 903.5,12C 905.426,11.5776 906.426,10.4109 906.5,8.5C 906.833,8.5 907.167,8.5 907.5,8.5C 908.15,8.80393 908.817,9.13727 909.5,9.5C 913.548,7.51947 917.882,6.3528 922.5,6C 923.056,5.61742 923.389,5.11742 923.5,4.5C 925.781,4.92271 927.448,4.25605 928.5,2.5C 929.167,2.5 929.833,2.5 930.5,2.5C 932.304,3.16202 934.304,3.49535 936.5,3.5C 945.337,3.02899 954.003,2.36233 962.5,1.5 Z M 878.5,107.5 C 878.414,108.496 878.748,109.329 879.5,110C 887.208,116.077 895.875,120.244 905.5,122.5C 905.833,122.5 906.167,122.5 906.5,122.5C 908.841,124.851 911.841,125.851 915.5,125.5C 917.841,127.851 920.841,128.851 924.5,128.5C 924.833,128.5 925.167,128.5 925.5,128.5C 927.597,130.482 930.264,131.482 933.5,131.5C 933.833,131.5 934.167,131.5 934.5,131.5C 935.183,133.176 936.517,133.843 938.5,133.5C 940.265,134.461 942.265,134.795 944.5,134.5C 946.597,136.482 949.264,137.482 952.5,137.5C 952.833,137.5 953.167,137.5 953.5,137.5C 953.791,138.649 954.624,139.316 956,139.5C 958.462,140.159 960.962,140.493 963.5,140.5C 963.833,140.5 964.167,140.5 964.5,140.5C 966.841,142.851 969.841,143.851 973.5,143.5C 975.841,145.851 978.841,146.851 982.5,146.5C 982.833,146.5 983.167,146.5 983.5,146.5C 985.597,148.482 988.264,149.482 991.5,149.5C 991.833,149.5 992.167,149.5 992.5,149.5C 1002.34,154.589 1012.01,160.255 1021.5,166.5C 1024.28,169.736 1027.28,172.736 1030.5,175.5C 1032.77,179.395 1035.1,183.062 1037.5,186.5C 1037.5,186.833 1037.5,187.167 1037.5,187.5C 1038.15,203.536 1037.48,219.202 1035.5,234.5C 1035.5,234.167 1035.5,233.833 1035.5,233.5C 1035.82,230.423 1034.82,228.09 1032.5,226.5C 1032.91,224.027 1031.91,222.694 1029.5,222.5C 1029.5,222.167 1029.5,221.833 1029.5,221.5C 1028.58,219.072 1027.42,216.739 1026,214.5C 1023.38,211.792 1020.55,209.459 1017.5,207.5C 1017.5,205.5 1016.5,204.5 1014.5,204.5C 1014.59,203.504 1014.25,202.671 1013.5,202C 1011.26,200.582 1008.93,199.415 1006.5,198.5C 1006.17,198.5 1005.83,198.5 1005.5,198.5C 1005.63,197.761 1005.46,197.094 1005,196.5C 1000.29,193.14 995.127,190.806 989.5,189.5C 988.833,189.5 988.167,189.5 987.5,189.5C 985.478,187.307 982.811,186.307 979.5,186.5C 978.448,184.744 976.781,184.077 974.5,184.5C 972.621,183.659 970.621,183.325 968.5,183.5C 966.159,181.149 963.159,180.149 959.5,180.5C 959.167,180.5 958.833,180.5 958.5,180.5C 957.817,178.824 956.483,178.157 954.5,178.5C 954.167,178.5 953.833,178.5 953.5,178.5C 952.791,177.596 951.791,177.263 950.5,177.5C 950.167,177.5 949.833,177.5 949.5,177.5C 949.209,176.351 948.376,175.684 947,175.5C 944.863,174.923 942.696,174.59 940.5,174.5C 939.833,174.5 939.167,174.5 938.5,174.5C 936.478,172.307 933.811,171.307 930.5,171.5C 929.365,169.787 927.698,169.12 925.5,169.5C 923.621,168.659 921.621,168.325 919.5,168.5C 919.38,167.414 918.713,166.747 917.5,166.5C 914.885,165.731 912.219,165.397 909.5,165.5C 907.403,163.518 904.736,162.518 901.5,162.5C 900.514,160.592 898.848,159.592 896.5,159.5C 896.167,159.5 895.833,159.5 895.5,159.5C 895.5,157.5 894.5,156.5 892.5,156.5C 892.167,156.5 891.833,156.5 891.5,156.5C 885.466,150.165 879.633,143.498 874,136.5C 868.179,125.144 866.345,113.144 868.5,100.5C 871.26,103.735 874.593,106.068 878.5,107.5 Z"/>
<path style="opacity:0.431" fill="#6e6e6e" d="M 963.5,1.5 C 964.5,1.5 965.5,1.5 966.5,1.5C 967.5,2.16667 968.5,2.83333 969.5,3.5C 966.918,3.97461 964.918,3.30794 963.5,1.5 Z"/>
<path style="opacity:0.251" fill="#e0e0e0" d="M 977.5,2.5 C 979.698,2.12012 981.365,2.78679 982.5,4.5C 980.219,4.92271 978.552,4.25605 977.5,2.5 Z"/>
<path style="opacity:0.251" fill="#afafaf" d="M 1041.5,4.5 C 1038.5,4.5 1035.5,4.5 1032.5,4.5C 1033.51,3.23532 1035.01,2.56865 1037,2.5C 1038.99,2.56865 1040.49,3.23532 1041.5,4.5 Z"/>
<path style="opacity:0.149" fill="#b0b0b0" d="M 605.5,9.5 C 603.804,9.31465 602.471,8.48131 601.5,7C 573.167,6.33333 544.833,6.33333 516.5,7C 515.264,8.08477 513.931,8.9181 512.5,9.5C 512.594,6.9315 513.928,5.4315 516.5,5C 544.833,4.33333 573.167,4.33333 601.5,5C 604.072,5.4315 605.406,6.9315 605.5,9.5 Z"/>
<path style="opacity:0.498" fill="#5a5a5a" d="M 975.5,2.5 C 976.167,2.5 976.833,2.5 977.5,2.5C 978.552,4.25605 980.219,4.92271 982.5,4.5C 983.5,4.5 984.5,4.5 985.5,4.5C 985.5,5.16667 985.5,5.83333 985.5,6.5C 982.193,5.9492 978.86,5.61587 975.5,5.5C 975.5,4.5 975.5,3.5 975.5,2.5 Z"/>
<path style="opacity:0.498" fill="#6d6d6d" d="M 1032.5,4.5 C 1035.5,4.5 1038.5,4.5 1041.5,4.5C 1043.97,4.08824 1045.31,5.08824 1045.5,7.5C 1039.81,4.90991 1034.14,4.90991 1028.5,7.5C 1028.69,5.08824 1030.03,4.08824 1032.5,4.5 Z"/>
<path style="opacity:0.365" fill="#9b9b9b" d="M 434.5,5.5 C 385.306,6.18042 335.973,6.84709 286.5,7.5C 286.881,6.06888 287.881,5.23555 289.5,5C 338.002,4.16839 386.335,4.33506 434.5,5.5 Z"/>
<path style="opacity:0.357" fill="#b6b6b6" d="M 921.5,4.5 C 922.167,4.5 922.833,4.5 923.5,4.5C 923.389,5.11742 923.056,5.61742 922.5,6C 917.882,6.3528 913.548,7.51947 909.5,9.5C 908.817,9.13727 908.15,8.80393 907.5,8.5C 911.585,5.54071 916.252,4.20737 921.5,4.5 Z"/>
<path style="opacity:0.176" fill="#cacaca" d="M 985.5,4.5 C 988.811,4.30717 991.478,5.30717 993.5,7.5C 991.5,7.5 989.5,7.5 987.5,7.5C 987.158,6.66175 986.492,6.32842 985.5,6.5C 985.5,5.83333 985.5,5.16667 985.5,4.5 Z"/>
<path style="opacity:0.149" fill="#c0c0c0" d="M 1371.5,7.5 C 1322.83,7.5 1274.17,7.5 1225.5,7.5C 1249.49,6.16689 1273.82,5.50023 1298.5,5.5C 1323.18,5.50023 1347.51,6.16689 1371.5,7.5 Z"/>
<path style="opacity:0.149" fill="#c0c0c0" d="M 1564.5,7.5 C 1515.5,7.5 1466.5,7.5 1417.5,7.5C 1441.66,6.16689 1466.16,5.50022 1491,5.5C 1515.84,5.50022 1540.34,6.16689 1564.5,7.5 Z"/>
<path style="opacity:0.251" fill="#7e7e7e" d="M 168.5,7.5 C 119.5,7.5 70.5,7.5 21.5,7.5C 45.6574,6.16689 70.1574,5.50022 95,5.5C 119.843,5.50022 144.343,6.16689 168.5,7.5 Z"/>
<path style="opacity:0.251" fill="#7e7e7e" d="M 779.5,7.5 C 731.167,7.5 682.833,7.5 634.5,7.5C 658.324,6.1669 682.491,5.50023 707,5.5C 731.509,5.50023 755.676,6.1669 779.5,7.5 Z"/>
<path style="opacity:0.494" fill="#282828" d="M 20.5,7.5 C 20.8333,7.5 21.1667,7.5 21.5,7.5C 70.5,7.5 119.5,7.5 168.5,7.5C 168.833,7.5 169.167,7.5 169.5,7.5C 169.5,8.16667 169.5,8.83333 169.5,9.5C 120.571,8.33862 71.5707,8.17195 22.5,9C 21.6266,10.045 20.6266,10.8783 19.5,11.5C 19.8333,10.1667 20.1667,8.83333 20.5,7.5 Z"/>
<path style="opacity:0.965" fill="#050505" d="M 434.5,5.5 C 436.433,5.72857 438.1,6.5619 439.5,8C 440.337,9.01127 440.67,10.1779 440.5,11.5C 440.5,14.1667 440.5,16.8333 440.5,19.5C 438.825,21.149 436.825,22.4823 434.5,23.5C 423.007,24.1667 411.674,24.8333 400.5,25.5C 400.177,92.1958 400.51,158.862 401.5,225.5C 401.933,228.166 402.433,230.832 403,233.5C 403.383,234.056 403.883,234.389 404.5,234.5C 404.5,235.833 405.167,236.5 406.5,236.5C 406.5,236.833 406.5,237.167 406.5,237.5C 407.482,244.123 410.482,249.456 415.5,253.5C 418.696,260.7 423.696,266.367 430.5,270.5C 432.55,272.547 434.883,274.214 437.5,275.5C 444.665,279.999 452.331,283.332 460.5,285.5C 468.952,287.682 477.619,288.015 486.5,286.5C 488.333,286.415 489.666,285.748 490.5,284.5C 492.698,284.88 494.365,284.213 495.5,282.5C 503.429,280.798 510.762,277.632 517.5,273C 518.252,272.329 518.586,271.496 518.5,270.5C 523.342,269.308 527.009,266.641 529.5,262.5C 532.215,259.448 534.549,256.115 536.5,252.5C 539.506,247.309 542.339,241.976 545,236.5C 545.765,234.934 545.598,233.601 544.5,232.5C 544.5,231.833 544.833,231.5 545.5,231.5C 546.586,231.38 547.253,230.713 547.5,229.5C 548.269,226.885 548.603,224.219 548.5,221.5C 549.222,221.082 549.722,220.416 550,219.5C 550.832,154.332 550.665,89.332 549.5,24.5C 538.986,24.1724 528.653,24.5058 518.5,25.5C 518.167,25.5 517.833,25.5 517.5,25.5C 517.5,24.1667 516.833,23.5 515.5,23.5C 515.167,23.5 514.833,23.5 514.5,23.5C 513.09,19.2961 512.423,14.9628 512.5,10.5C 512.5,10.1667 512.5,9.83333 512.5,9.5C 513.931,8.9181 515.264,8.08477 516.5,7C 544.833,6.33333 573.167,6.33333 601.5,7C 602.471,8.48131 603.804,9.31465 605.5,9.5C 606.806,10.4674 607.473,11.8007 607.5,13.5C 606.388,15.5994 605.721,17.9327 605.5,20.5C 605.5,20.8333 605.5,21.1667 605.5,21.5C 604.167,21.5 603.5,22.1667 603.5,23.5C 603.167,23.5 602.833,23.5 602.5,23.5C 601.167,23.5 600.5,24.1667 600.5,25.5C 600.167,25.5 599.833,25.5 599.5,25.5C 589.347,24.5058 579.014,24.1724 568.5,24.5C 568.5,36.1667 568.5,47.8333 568.5,59.5C 567.082,61.3079 565.082,61.9746 562.5,61.5C 562.5,62.5 562.5,63.5 562.5,64.5C 564.735,64.2053 566.735,64.5386 568.5,65.5C 568.5,114.833 568.5,164.167 568.5,213.5C 568.5,215.5 568.5,217.5 568.5,219.5C 567.028,221.117 566.361,223.117 566.5,225.5C 566.511,227.045 566.844,228.378 567.5,229.5C 567.5,229.833 567.5,230.167 567.5,230.5C 565.824,231.183 565.157,232.517 565.5,234.5C 564.883,234.611 564.383,234.944 564,235.5C 563.498,238.513 562.998,241.513 562.5,244.5C 562.5,244.833 562.5,245.167 562.5,245.5C 555.599,256.288 548.433,266.955 541,277.5C 535.639,280.703 531.139,284.703 527.5,289.5C 521.504,292.227 515.504,295.06 509.5,298C 508.748,298.671 508.414,299.504 508.5,300.5C 508.167,300.5 507.833,300.5 507.5,300.5C 507.083,299.876 506.416,299.543 505.5,299.5C 500.89,299.579 497.223,301.245 494.5,304.5C 493.833,304.5 493.167,304.5 492.5,304.5C 460.835,305.825 429.168,305.825 397.5,304.5C 397.167,304.5 396.833,304.5 396.5,304.5C 396.389,303.883 396.056,303.383 395.5,303C 392.207,302.174 388.874,301.674 385.5,301.5C 383.44,299.852 381.107,298.352 378.5,297C 376.564,296.187 374.564,295.687 372.5,295.5C 372.167,295.5 371.833,295.5 371.5,295.5C 371.489,293.983 370.823,292.816 369.5,292C 366.277,289.938 362.943,288.104 359.5,286.5C 359.167,286.5 358.833,286.5 358.5,286.5C 354.309,280.965 349.475,275.965 344,271.5C 341.752,266.678 338.752,262.345 335,258.5C 333.878,254.049 331.878,250.049 329,246.5C 328.51,245.207 328.343,243.873 328.5,242.5C 328.113,239.794 327.113,237.461 325.5,235.5C 325.5,234.5 325.5,233.5 325.5,232.5C 324.82,228.881 324.32,225.214 324,221.5C 323.722,220.584 323.222,219.918 322.5,219.5C 322.5,219.167 322.5,218.833 322.5,218.5C 322.5,153.833 322.5,89.1667 322.5,24.5C 311.813,24.832 301.146,24.4987 290.5,23.5C 289.15,22.0499 287.484,21.3832 285.5,21.5C 284.075,16.7143 284.408,12.0477 286.5,7.5C 335.973,6.84709 385.306,6.18042 434.5,5.5 Z M 381.5,223.5 C 381.01,231.492 383.01,238.492 387.5,244.5C 387.5,244.833 387.5,245.167 387.5,245.5C 387.433,247.401 387.767,249.234 388.5,251C 392.919,258.785 397.752,266.285 403,273.5C 403.671,274.252 404.504,274.586 405.5,274.5C 407.743,278.415 410.743,281.749 414.5,284.5C 412.604,285.466 410.604,285.799 408.5,285.5C 407.833,285.5 407.167,285.5 406.5,285.5C 405.448,283.744 403.781,283.077 401.5,283.5C 392.835,281.39 384.668,278.057 377,273.5C 368.95,266.945 361.45,259.945 354.5,252.5C 354.5,252.167 354.5,251.833 354.5,251.5C 354.408,249.152 353.408,247.486 351.5,246.5C 351.481,244.94 351.148,243.44 350.5,242C 349.09,239.138 347.423,236.638 345.5,234.5C 345.5,234.167 345.5,233.833 345.5,233.5C 345.391,228.25 344.391,223.25 342.5,218.5C 342.5,154.5 342.5,90.5 342.5,26.5C 354.833,26.5 367.167,26.5 379.5,26.5C 379.333,91.8342 379.5,157.168 380,222.5C 380.383,223.056 380.883,223.389 381.5,223.5 Z"/>
<path style="opacity:0.494" fill="#262626" d="M 633.5,7.5 C 633.833,7.5 634.167,7.5 634.5,7.5C 682.833,7.5 731.167,7.5 779.5,7.5C 730.931,8.17125 682.264,8.83792 633.5,9.5C 633.5,8.83333 633.5,8.16667 633.5,7.5 Z"/>
<path style="opacity:0.42" fill="#5d5d5d" d="M 987.5,7.5 C 989.5,7.5 991.5,7.5 993.5,7.5C 993.833,7.5 994.167,7.5 994.5,7.5C 994.833,8.16667 995.167,8.83333 995.5,9.5C 992.67,9.03718 990.003,8.37051 987.5,7.5 Z"/>
<path style="opacity:0.494" fill="#3b3b3b" d="M 1225.5,7.5 C 1274.17,7.5 1322.83,7.5 1371.5,7.5C 1371.83,7.5 1372.17,7.5 1372.5,7.5C 1372.5,8.16667 1372.5,8.83333 1372.5,9.5C 1323.5,8.16667 1274.5,8.16667 1225.5,9.5C 1225.5,8.83333 1225.5,8.16667 1225.5,7.5 Z"/>
<path style="opacity:0.494" fill="#3d3d3d" d="M 1416.5,7.5 C 1416.83,7.5 1417.17,7.5 1417.5,7.5C 1466.5,7.5 1515.5,7.5 1564.5,7.5C 1564.83,7.5 1565.17,7.5 1565.5,7.5C 1565.5,8.16667 1565.5,8.83333 1565.5,9.5C 1515.86,8.17083 1466.2,8.17083 1416.5,9.5C 1416.5,8.83333 1416.5,8.16667 1416.5,7.5 Z"/>
<path style="opacity:0.973" fill="#040404" d="M 169.5,9.5 C 175.028,14.6081 174.695,19.4414 168.5,24C 157.397,25.0982 146.397,25.9316 135.5,26.5C 135.5,113.5 135.5,200.5 135.5,287.5C 170.167,287.5 204.833,287.5 239.5,287.5C 239.333,276.495 239.5,265.495 240,254.5C 241.372,253.09 242.205,251.423 242.5,249.5C 242.833,249.5 243.167,249.5 243.5,249.5C 246.5,249.5 249.5,249.5 252.5,249.5C 252.833,249.5 253.167,249.5 253.5,249.5C 254.072,251.255 254.906,252.922 256,254.5C 256.667,269.167 256.667,283.833 256,298.5C 255.59,299.901 255.09,301.234 254.5,302.5C 253.571,303.315 252.571,304.148 251.5,305C 175.332,305.167 99.3322,305.667 23.5,306.5C 23.1667,306.5 22.8333,306.5 22.5,306.5C 22.5,305.167 21.8333,304.5 20.5,304.5C 18.4272,300.485 18.0938,296.318 19.5,292C 19.9054,291.055 20.572,290.388 21.5,290C 33.6179,288.918 45.6179,288.085 57.5,287.5C 58.4994,200.335 58.8327,113.002 58.5,25.5C 47.1667,25.5 35.8333,25.5 24.5,25.5C 17.8216,22.5244 16.1549,17.8577 19.5,11.5C 20.6266,10.8783 21.6266,10.045 22.5,9C 71.5707,8.17195 120.571,8.33862 169.5,9.5 Z M 115.5,28.5 C 115.5,114.167 115.5,199.833 115.5,285.5C 103.167,285.5 90.8333,285.5 78.5,285.5C 78.5,199.833 78.5,114.167 78.5,28.5C 90.8333,28.5 103.167,28.5 115.5,28.5 Z"/>
<path style="opacity:0.961" fill="#020202" d="M 779.5,7.5 C 779.833,7.5 780.167,7.5 780.5,7.5C 785.655,12.9576 785.655,18.4576 780.5,24C 769.063,25.1004 757.73,25.9338 746.5,26.5C 746.5,113.5 746.5,200.5 746.5,287.5C 756.839,287.334 767.172,287.5 777.5,288C 780.274,288.624 782.274,290.124 783.5,292.5C 785.529,297.734 784.196,301.734 779.5,304.5C 731.002,305.167 682.668,305.833 634.5,306.5C 634.167,306.5 633.833,306.5 633.5,306.5C 633.5,305.167 632.833,304.5 631.5,304.5C 628.833,299.167 628.833,293.833 631.5,288.5C 643.796,287.56 656.129,287.227 668.5,287.5C 669.499,200.335 669.833,113.002 669.5,25.5C 657.961,25.8018 646.461,25.4685 635,24.5C 629.432,21.1421 628.099,16.4754 631,10.5C 631.671,9.74756 632.504,9.41423 633.5,9.5C 682.264,8.83792 730.931,8.17125 779.5,7.5 Z M 689.5,28.5 C 701.833,28.5 714.167,28.5 726.5,28.5C 726.5,114.167 726.5,199.833 726.5,285.5C 714.167,285.5 701.833,285.5 689.5,285.5C 689.5,199.833 689.5,114.167 689.5,28.5 Z"/>
<path style="opacity:0.194" fill="#949494" d="M 1225.5,7.5 C 1225.5,8.16667 1225.5,8.83333 1225.5,9.5C 1224.17,9.83333 1222.83,10.1667 1221.5,10.5C 1221.69,8.08824 1223.03,7.08824 1225.5,7.5 Z"/>
<path style="opacity:0.972" fill="#030303" d="M 1372.5,9.5 C 1373.5,9.41423 1374.33,9.74756 1375,10.5C 1376.91,14.5292 1376.91,18.5292 1375,22.5C 1374.29,23.3805 1373.46,24.0472 1372.5,24.5C 1361.04,25.1256 1349.7,25.7922 1338.5,26.5C 1338.5,77.5 1338.5,128.5 1338.5,179.5C 1376.85,180.161 1414.85,179.494 1452.5,177.5C 1452.5,127.167 1452.5,76.8333 1452.5,26.5C 1440.93,25.8139 1429.27,25.1473 1417.5,24.5C 1412.58,21.0572 1411.24,16.3905 1413.5,10.5C 1414.61,10.4431 1415.61,10.1098 1416.5,9.5C 1466.2,8.17083 1515.86,8.17083 1565.5,9.5C 1571.1,14.8473 1570.77,19.8473 1564.5,24.5C 1553.4,25.1461 1542.4,25.8127 1531.5,26.5C 1530.5,113.332 1530.17,200.332 1530.5,287.5C 1541.51,287.333 1552.51,287.5 1563.5,288C 1571.16,293.127 1571.49,298.794 1564.5,305C 1540,305.167 1515.5,305.333 1491,305.5C 1465.69,305.482 1440.52,304.815 1415.5,303.5C 1411.59,298.581 1411.59,293.581 1415.5,288.5C 1416.47,287.194 1417.8,286.527 1419.5,286.5C 1430.32,287.495 1441.32,287.828 1452.5,287.5C 1452.5,257.5 1452.5,227.5 1452.5,197.5C 1414.83,197.5 1377.17,197.5 1339.5,197.5C 1338.5,227.329 1338.17,257.329 1338.5,287.5C 1349.17,287.333 1359.84,287.5 1370.5,288C 1374.45,289.431 1376.45,292.265 1376.5,296.5C 1375.77,300.211 1374.44,303.544 1372.5,306.5C 1372.17,306.5 1371.83,306.5 1371.5,306.5C 1323,305.833 1274.33,305.167 1225.5,304.5C 1223.93,302.585 1221.93,301.585 1219.5,301.5C 1219.5,301.167 1219.5,300.833 1219.5,300.5C 1219.05,294.682 1221.38,290.515 1226.5,288C 1237.83,287.5 1249.16,287.333 1260.5,287.5C 1260.5,200.5 1260.5,113.5 1260.5,26.5C 1248.93,25.8139 1237.27,25.1473 1225.5,24.5C 1224.17,24.1667 1222.83,23.8333 1221.5,23.5C 1221.5,22.1667 1220.83,21.5 1219.5,21.5C 1219.5,21.1667 1219.5,20.8333 1219.5,20.5C 1220.83,18.1667 1220.83,15.8333 1219.5,13.5C 1219.5,13.1667 1219.5,12.8333 1219.5,12.5C 1220.83,12.5 1221.5,11.8333 1221.5,10.5C 1222.83,10.1667 1224.17,9.83333 1225.5,9.5C 1274.5,8.16667 1323.5,8.16667 1372.5,9.5 Z M 1318.5,28.5 C 1318.5,77.5 1318.5,126.5 1318.5,175.5C 1305.83,175.5 1293.17,175.5 1280.5,175.5C 1280.5,126.5 1280.5,77.5 1280.5,28.5C 1293.17,28.5 1305.83,28.5 1318.5,28.5 Z M 1474.5,28.5 C 1486.17,28.5 1497.83,28.5 1509.5,28.5C 1509.5,77.5 1509.5,126.5 1509.5,175.5C 1497.83,175.5 1486.17,175.5 1474.5,175.5C 1474.5,126.5 1474.5,77.5 1474.5,28.5 Z M 1280.5,199.5 C 1293.17,199.5 1305.83,199.5 1318.5,199.5C 1318.5,228.167 1318.5,256.833 1318.5,285.5C 1305.83,285.5 1293.17,285.5 1280.5,285.5C 1280.5,256.833 1280.5,228.167 1280.5,199.5 Z M 1474.5,199.5 C 1486.17,199.5 1497.83,199.5 1509.5,199.5C 1509.5,228.167 1509.5,256.833 1509.5,285.5C 1497.83,285.5 1486.17,285.5 1474.5,285.5C 1474.5,256.833 1474.5,228.167 1474.5,199.5 Z"/>
<path style="opacity:0.245" fill="#c1c1c1" d="M 1416.5,7.5 C 1416.5,8.16667 1416.5,8.83333 1416.5,9.5C 1415.61,10.1098 1414.61,10.4431 1413.5,10.5C 1413.5,8.5 1414.5,7.5 1416.5,7.5 Z"/>
<path style="opacity:0.31" fill="#bababa" d="M 994.5,7.5 C 997.577,7.179 999.91,8.179 1001.5,10.5C 999.435,10.4828 997.435,10.1495 995.5,9.5C 995.167,8.83333 994.833,8.16667 994.5,7.5 Z"/>
<path style="opacity:0.592" fill="#9d9d9d" d="M 906.5,8.5 C 906.426,10.4109 905.426,11.5776 903.5,12C 900.883,12.8215 898.216,13.3215 895.5,13.5C 895.47,12.5028 895.97,11.8361 897,11.5C 900.28,10.7178 903.447,9.71782 906.5,8.5 Z"/>
<path style="opacity:0.278" fill="#9f9f9f" d="M 1221.5,10.5 C 1221.5,11.8333 1220.83,12.5 1219.5,12.5C 1219.5,11.1667 1220.17,10.5 1221.5,10.5 Z"/>
<path style="opacity:0.404" fill="#9f9f9f" d="M 1565.5,7.5 C 1568.95,8.41052 1570.78,10.7439 1571,14.5C 1571.26,18.2463 1570.76,21.913 1569.5,25.5C 1567.78,25.6287 1566.12,25.962 1564.5,26.5C 1564.5,25.8333 1564.5,25.1667 1564.5,24.5C 1570.77,19.8473 1571.1,14.8473 1565.5,9.5C 1565.5,8.83333 1565.5,8.16667 1565.5,7.5 Z"/>
<path style="opacity:0.065" fill="#fafafa" d="M 283.5,11.5 C 283.5,14.1667 283.5,16.8333 283.5,19.5C 282.252,18.6661 281.585,17.3328 281.5,15.5C 281.585,13.6672 282.252,12.3339 283.5,11.5 Z"/>
<path style="opacity:0.302" fill="#bcbcbc" d="M 20.5,7.5 C 20.1667,8.83333 19.8333,10.1667 19.5,11.5C 16.1549,17.8577 17.8216,22.5244 24.5,25.5C 24.5,25.8333 24.5,26.1667 24.5,26.5C 20.2311,26.6567 17.7311,24.6567 17,20.5C 16.2327,16.4065 16.566,12.4065 18,8.5C 18.6708,7.74756 19.5041,7.41423 20.5,7.5 Z"/>
<path style="opacity:0.094" fill="#fefffe" d="M 174.5,14.5 C 175.649,14.7911 176.316,15.6244 176.5,17C 176.316,18.3756 175.649,19.2089 174.5,19.5C 174.5,17.8333 174.5,16.1667 174.5,14.5 Z"/>
<path style="opacity:0.086" fill="#b8b8b8" d="M 440.5,11.5 C 441.748,12.3339 442.415,13.6672 442.5,15.5C 442.415,17.3328 441.748,18.6661 440.5,19.5C 440.5,16.8333 440.5,14.1667 440.5,11.5 Z"/>
<path style="opacity:0.596" fill="#8d8d8d" d="M 512.5,10.5 C 512.423,14.9628 513.09,19.2961 514.5,23.5C 511.8,21.6124 510.134,18.9457 509.5,15.5C 509.595,13.1309 510.595,11.4642 512.5,10.5 Z"/>
<path style="opacity:0.286" fill="#aeaeae" d="M 1002.5,10.5 C 1009.65,12.6069 1016.31,15.7736 1022.5,20C 1023.25,20.6708 1023.59,21.5041 1023.5,22.5C 1021.82,22.1077 1020.15,21.6077 1018.5,21C 1013.09,17.3964 1007.76,13.8964 1002.5,10.5 Z"/>
<path style="opacity:0.169" fill="#c1c1c1" d="M 1026.5,10.5 C 1027.1,15.6186 1026.44,20.2853 1024.5,24.5C 1023.66,24.1583 1023.33,23.4916 1023.5,22.5C 1025.13,18.7675 1026.13,14.7675 1026.5,10.5 Z"/>
<path style="opacity:0.394" fill="#7c7c7c" d="M 1028.5,7.5 C 1027.64,13.4549 1027.3,19.4549 1027.5,25.5C 1026.21,25.7373 1025.21,25.404 1024.5,24.5C 1026.44,20.2853 1027.1,15.6186 1026.5,10.5C 1026.29,8.82124 1026.95,7.82124 1028.5,7.5 Z"/>
<path style="opacity:0.427" fill="#bababa" d="M 1045.5,8.5 C 1046.93,8.88066 1047.76,9.88066 1048,11.5C 1048.67,35.1667 1048.67,58.8333 1048,82.5C 1047.76,84.1193 1046.93,85.1193 1045.5,85.5C 1046.83,59.8333 1046.83,34.1667 1045.5,8.5 Z"/>
<path style="opacity:0.369" fill="#bbbbbb" d="M 1413.5,10.5 C 1411.24,16.3905 1412.58,21.0572 1417.5,24.5C 1417.5,25.1667 1417.5,25.8333 1417.5,26.5C 1414.28,25.8239 1412.12,23.8239 1411,20.5C 1410.33,18.1667 1410.33,15.8333 1411,13.5C 1411.24,11.8807 1412.07,10.8807 1413.5,10.5 Z"/>
<path style="opacity:0.068" fill="#fafafa" d="M 628.5,13.5 C 628.5,15.5 628.5,17.5 628.5,19.5C 627.307,19.0296 626.64,18.0296 626.5,16.5C 626.64,14.9704 627.307,13.9704 628.5,13.5 Z"/>
<path style="opacity:0.259" fill="#ededed" d="M 785.5,13.5 C 786.693,13.9704 787.36,14.9704 787.5,16.5C 787.36,18.0296 786.693,19.0296 785.5,19.5C 785.5,17.5 785.5,15.5 785.5,13.5 Z"/>
<path style="opacity:0.114" fill="#c7c7c7" d="M 1219.5,13.5 C 1220.83,15.8333 1220.83,18.1667 1219.5,20.5C 1218.17,18.1667 1218.17,15.8333 1219.5,13.5 Z"/>
<path style="opacity:0.063" fill="#ababab" d="M 607.5,13.5 C 608.598,14.6009 608.765,15.9343 608,17.5C 607.764,19.1193 606.931,20.1193 605.5,20.5C 605.721,17.9327 606.388,15.5994 607.5,13.5 Z"/>
<path style="opacity:0.176" fill="#989898" d="M 1372.5,7.5 C 1376.77,9.0786 1378.77,12.2453 1378.5,17C 1378.77,21.7547 1376.77,24.9214 1372.5,26.5C 1372.5,25.8333 1372.5,25.1667 1372.5,24.5C 1373.46,24.0472 1374.29,23.3805 1375,22.5C 1376.91,18.5292 1376.91,14.5292 1375,10.5C 1374.33,9.74756 1373.5,9.41423 1372.5,9.5C 1372.5,8.83333 1372.5,8.16667 1372.5,7.5 Z"/>
<path style="opacity:0.018" fill="#afafaf" d="M 1219.5,21.5 C 1220.83,21.5 1221.5,22.1667 1221.5,23.5C 1220.17,23.5 1219.5,22.8333 1219.5,21.5 Z"/>
<path style="opacity:0.212" fill="#ababab" d="M 605.5,21.5 C 605.5,22.8333 604.833,23.5 603.5,23.5C 603.5,22.1667 604.167,21.5 605.5,21.5 Z"/>
<path style="opacity:0.139" fill="#8d8d8d" d="M 602.5,23.5 C 602.5,24.8333 601.833,25.5 600.5,25.5C 600.5,24.1667 601.167,23.5 602.5,23.5 Z"/>
<path style="opacity:0.063" fill="#efefef" d="M 784.5,23.5 C 784.5,24.8333 783.833,25.5 782.5,25.5C 782.5,24.1667 783.167,23.5 784.5,23.5 Z"/>
<path style="opacity:0.376" fill="#a0a0a0" d="M 440.5,19.5 C 440.649,20.552 440.483,21.552 440,22.5C 438.494,24.1742 436.661,25.1742 434.5,25.5C 423.167,25.5 411.833,25.5 400.5,25.5C 411.674,24.8333 423.007,24.1667 434.5,23.5C 436.825,22.4823 438.825,21.149 440.5,19.5 Z"/>
<path style="opacity:0.082" fill="#a4a4a4" d="M 515.5,23.5 C 516.833,23.5 517.5,24.1667 517.5,25.5C 516.167,25.5 515.5,24.8333 515.5,23.5 Z"/>
<path style="opacity:0.206" fill="#a5a5a5" d="M 1221.5,23.5 C 1222.83,23.8333 1224.17,24.1667 1225.5,24.5C 1225.5,25.1667 1225.5,25.8333 1225.5,26.5C 1223.03,26.9118 1221.69,25.9118 1221.5,23.5 Z"/>
<path style="opacity:0.506" fill="#7e7e7e" d="M 169.5,7.5 C 173.071,8.35084 174.737,10.6842 174.5,14.5C 174.5,16.1667 174.5,17.8333 174.5,19.5C 173.332,23.9561 170.332,26.2894 165.5,26.5C 155.833,26.5 146.167,26.5 136.5,26.5C 136.167,26.5 135.833,26.5 135.5,26.5C 146.397,25.9316 157.397,25.0982 168.5,24C 174.695,19.4414 175.028,14.6081 169.5,9.5C 169.5,8.83333 169.5,8.16667 169.5,7.5 Z"/>
<path style="opacity:0.301" fill="#9b9b9b" d="M 286.5,7.5 C 284.408,12.0477 284.075,16.7143 285.5,21.5C 287.484,21.3832 289.15,22.0499 290.5,23.5C 301.146,24.4987 311.813,24.832 322.5,24.5C 322.5,89.1667 322.5,153.833 322.5,218.5C 321.833,218.5 321.167,218.5 320.5,218.5C 320.5,154.5 320.5,90.5 320.5,26.5C 310.494,26.6665 300.494,26.4998 290.5,26C 288.5,25 286.5,24 284.5,23C 283.663,21.9887 283.33,20.8221 283.5,19.5C 283.5,16.8333 283.5,14.1667 283.5,11.5C 283.088,9.02741 284.088,7.69408 286.5,7.5 Z"/>
<path style="opacity:0.029" fill="#fefffe" d="M 518.5,25.5 C 528.5,25.5 538.5,25.5 548.5,25.5C 548.5,86.8333 548.5,148.167 548.5,209.5C 548.167,209.5 547.833,209.5 547.5,209.5C 547.5,148.5 547.5,87.5 547.5,26.5C 537.652,26.8271 527.986,26.4938 518.5,25.5 Z"/>
<path style="opacity:0.353" fill="#5c5c5c" d="M 780.5,7.5 C 783.966,7.96783 785.632,9.96783 785.5,13.5C 785.5,15.5 785.5,17.5 785.5,19.5C 785.567,20.9587 785.234,22.2921 784.5,23.5C 783.167,23.5 782.5,24.1667 782.5,25.5C 781.292,26.2341 779.959,26.5674 778.5,26.5C 768.5,26.5 758.5,26.5 748.5,26.5C 748.167,26.5 747.833,26.5 747.5,26.5C 747.167,26.5 746.833,26.5 746.5,26.5C 757.73,25.9338 769.063,25.1004 780.5,24C 785.655,18.4576 785.655,12.9576 780.5,7.5 Z"/>
<path style="opacity:0.302" fill="#929292" d="M 987.5,28.5 C 983.44,27.7014 979.44,26.7014 975.5,25.5C 972.663,23.5977 969.329,22.931 965.5,23.5C 955.5,23.5 945.5,23.5 935.5,23.5C 933.219,23.0773 931.552,23.744 930.5,25.5C 927.904,26.2653 925.237,26.5987 922.5,26.5C 920.219,26.0773 918.552,26.744 917.5,28.5C 917.167,28.5 916.833,28.5 916.5,28.5C 916.5,28.1667 916.5,27.8333 916.5,27.5C 920.073,25.4515 924.073,23.9515 928.5,23C 936.131,22.0122 943.798,21.5122 951.5,21.5C 963.453,20.8402 974.953,22.5069 986,26.5C 987.03,26.8361 987.53,27.5028 987.5,28.5 Z"/>
<path style="opacity:0.063" fill="#d3d3d3" d="M 935.5,23.5 C 934.448,25.256 932.781,25.9227 930.5,25.5C 931.552,23.744 933.219,23.0773 935.5,23.5 Z"/>
<path style="opacity:0.132" fill="#eaeaea" d="M 965.5,23.5 C 969.329,22.931 972.663,23.5977 975.5,25.5C 971.671,26.069 968.337,25.4023 965.5,23.5 Z"/>
<path style="opacity:0.51" fill="#383838" d="M 1225.5,24.5 C 1237.27,25.1473 1248.93,25.8139 1260.5,26.5C 1248.83,26.5 1237.17,26.5 1225.5,26.5C 1225.5,25.8333 1225.5,25.1667 1225.5,24.5 Z"/>
<path style="opacity:0.51" fill="#393939" d="M 1372.5,24.5 C 1372.5,25.1667 1372.5,25.8333 1372.5,26.5C 1372.17,26.5 1371.83,26.5 1371.5,26.5C 1360.83,26.5 1350.17,26.5 1339.5,26.5C 1339.17,26.5 1338.83,26.5 1338.5,26.5C 1349.7,25.7922 1361.04,25.1256 1372.5,24.5 Z"/>
<path style="opacity:0.511" fill="#383838" d="M 1417.5,24.5 C 1429.27,25.1473 1440.93,25.8139 1452.5,26.5C 1440.83,26.5 1429.17,26.5 1417.5,26.5C 1417.5,25.8333 1417.5,25.1667 1417.5,24.5 Z"/>
<path style="opacity:0.51" fill="#373737" d="M 1564.5,24.5 C 1564.5,25.1667 1564.5,25.8333 1564.5,26.5C 1564.17,26.5 1563.83,26.5 1563.5,26.5C 1552.83,26.5 1542.17,26.5 1531.5,26.5C 1542.4,25.8127 1553.4,25.1461 1564.5,24.5 Z"/>
<path style="opacity:0.154" fill="#fefefe" d="M 24.5,26.5 C 35.1667,26.5 45.8333,26.5 56.5,26.5C 56.6716,27.4916 56.3382,28.1583 55.5,28.5C 44.7792,29.1419 34.4459,28.4753 24.5,26.5 Z"/>
<path style="opacity:0.146" fill="#fefffe" d="M 115.5,26.5 C 115.5,27.1667 115.5,27.8333 115.5,28.5C 103.167,28.5 90.8333,28.5 78.5,28.5C 78.5,114.167 78.5,199.833 78.5,285.5C 90.8333,285.5 103.167,285.5 115.5,285.5C 102.677,286.495 89.6774,286.829 76.5,286.5C 76.5,199.833 76.5,113.167 76.5,26.5C 89.5,26.5 102.5,26.5 115.5,26.5 Z"/>
<path style="opacity:0.144" fill="#fefffe" d="M 136.5,26.5 C 146.167,26.5 155.833,26.5 165.5,26.5C 156.56,28.4722 147.227,29.1389 137.5,28.5C 137.5,114.167 137.5,199.833 137.5,285.5C 170.833,285.5 204.167,285.5 237.5,285.5C 204.004,286.498 170.337,286.832 136.5,286.5C 136.5,199.833 136.5,113.167 136.5,26.5 Z"/>
<path style="opacity:0.208" fill="#a0a0a0" d="M 387.5,244.5 C 383.01,238.492 381.01,231.492 381.5,223.5C 380.532,157.511 380.198,91.5112 380.5,25.5C 367.5,25.5 354.5,25.5 341.5,25.5C 341.168,90.0022 341.501,154.335 342.5,218.5C 344.391,223.25 345.391,228.25 345.5,233.5C 342.948,230.364 341.448,226.698 341,222.5C 340.5,156.501 340.333,90.5008 340.5,24.5C 354.167,24.5 367.833,24.5 381.5,24.5C 381.333,87.5009 381.5,150.501 382,213.5C 382.667,219.5 383.333,225.5 384,231.5C 386.017,235.594 387.183,239.928 387.5,244.5 Z"/>
<path style="opacity:0.091" fill="#fdfdfd" d="M 381.5,223.5 C 380.883,223.389 380.383,223.056 380,222.5C 379.5,157.168 379.333,91.8342 379.5,26.5C 367.167,26.5 354.833,26.5 342.5,26.5C 342.5,90.5 342.5,154.5 342.5,218.5C 341.501,154.335 341.168,90.0022 341.5,25.5C 354.5,25.5 367.5,25.5 380.5,25.5C 380.198,91.5112 380.532,157.511 381.5,223.5 Z"/>
<path style="opacity:0.447" fill="#5d5d5d" d="M 549.5,24.5 C 550.665,89.332 550.832,154.332 550,219.5C 549.722,220.416 549.222,221.082 548.5,221.5C 548.672,220.508 548.338,219.842 547.5,219.5C 547.5,216.167 547.5,212.833 547.5,209.5C 547.833,209.5 548.167,209.5 548.5,209.5C 549.502,152.514 549.835,90.8476 549.5,24.5 Z"/>
<path style="opacity:0.128" fill="#fefffe" d="M 635.5,26.5 C 646.5,26.5 657.5,26.5 668.5,26.5C 668.5,113.167 668.5,199.833 668.5,286.5C 657.167,286.5 645.833,286.5 634.5,286.5C 644.987,285.506 655.654,285.172 666.5,285.5C 666.5,199.833 666.5,114.167 666.5,28.5C 655.779,29.1419 645.446,28.4753 635.5,26.5 Z"/>
<path style="opacity:0.155" fill="#fefffe" d="M 748.5,26.5 C 758.5,26.5 768.5,26.5 778.5,26.5C 768.889,28.4743 758.889,29.141 748.5,28.5C 748.5,27.8333 748.5,27.1667 748.5,26.5 Z"/>
<path style="opacity:0.278" fill="#9e9e9e" d="M 895.5,13.5 C 889.465,19.0356 882.798,23.869 875.5,28C 872.197,32.1826 868.197,35.3493 863.5,37.5C 863.369,36.7611 863.536,36.0944 864,35.5C 868.218,31.808 872.385,28.1414 876.5,24.5C 881.624,21.5266 886.458,18.1933 891,14.5C 892.44,13.8524 893.94,13.5191 895.5,13.5 Z"/>
<path style="opacity:0.222" fill="#bbbbbb" d="M 56.5,26.5 C 57.4994,113.332 57.8327,200.332 57.5,287.5C 45.4625,287.228 33.4625,287.562 21.5,288.5C 21.8807,287.069 22.8807,286.236 24.5,286C 34.828,285.5 45.1613,285.334 55.5,285.5C 55.5,199.833 55.5,114.167 55.5,28.5C 56.3382,28.1583 56.6716,27.4916 56.5,26.5 Z"/>
<path style="opacity:0.212" fill="#d1d1d1" d="M 518.5,25.5 C 528.653,24.5058 538.986,24.1724 549.5,24.5C 549.835,90.8476 549.502,152.514 548.5,209.5C 548.5,148.167 548.5,86.8333 548.5,25.5C 538.5,25.5 528.5,25.5 518.5,25.5 Z"/>
<path style="opacity:0.153" fill="#b5b5b5" d="M 599.5,25.5 C 590.014,26.4938 580.348,26.8271 570.5,26.5C 571.144,37.8842 570.477,48.8842 568.5,59.5C 568.5,47.8333 568.5,36.1667 568.5,24.5C 579.014,24.1724 589.347,24.5058 599.5,25.5 Z"/>
<path style="opacity:0.071" fill="#c0c0c0" d="M 922.5,26.5 C 921.448,28.256 919.781,28.9227 917.5,28.5C 918.552,26.744 920.219,26.0773 922.5,26.5 Z"/>
<path style="opacity:0.401" fill="#5e5e5e" d="M 1320.5,26.5 C 1320.17,26.5 1319.83,26.5 1319.5,26.5C 1306.17,26.5 1292.83,26.5 1279.5,26.5C 1279.17,77.0028 1279.5,127.336 1280.5,177.5C 1293.66,178.496 1306.99,178.829 1320.5,178.5C 1306.68,179.496 1292.68,179.829 1278.5,179.5C 1278.5,128.167 1278.5,76.8333 1278.5,25.5C 1292.68,25.1709 1306.68,25.5042 1320.5,26.5 Z"/>
<path style="opacity:0.463" fill="#464646" d="M 24.5,26.5 C 24.5,26.1667 24.5,25.8333 24.5,25.5C 35.8333,25.5 47.1667,25.5 58.5,25.5C 58.8327,113.002 58.4994,200.335 57.5,287.5C 57.8327,200.332 57.4994,113.332 56.5,26.5C 45.8333,26.5 35.1667,26.5 24.5,26.5 Z"/>
<path style="opacity:0.49" fill="#676767" d="M 117.5,26.5 C 116.833,26.5 116.167,26.5 115.5,26.5C 102.5,26.5 89.5,26.5 76.5,26.5C 76.5,113.167 76.5,199.833 76.5,286.5C 76.5,286.833 76.5,287.167 76.5,287.5C 75.5006,200.335 75.1673,113.002 75.5,25.5C 89.6766,25.1709 103.677,25.5042 117.5,26.5 Z"/>
<path style="opacity:0.13" fill="#adadad" d="M 115.5,26.5 C 116.167,26.5 116.833,26.5 117.5,26.5C 117.5,113.5 117.5,200.5 117.5,287.5C 103.833,287.5 90.1667,287.5 76.5,287.5C 76.5,287.167 76.5,286.833 76.5,286.5C 89.6774,286.829 102.677,286.495 115.5,285.5C 115.5,199.833 115.5,114.167 115.5,28.5C 115.5,27.8333 115.5,27.1667 115.5,26.5 Z"/>
<path style="opacity:0.349" fill="#c5c5c5" d="M 135.5,26.5 C 135.833,26.5 136.167,26.5 136.5,26.5C 136.5,113.167 136.5,199.833 136.5,286.5C 170.337,286.832 204.004,286.498 237.5,285.5C 237.333,274.828 237.5,264.161 238,253.5C 238.432,250.928 239.932,249.594 242.5,249.5C 242.205,251.423 241.372,253.09 240,254.5C 239.5,265.495 239.333,276.495 239.5,287.5C 204.833,287.5 170.167,287.5 135.5,287.5C 135.5,200.5 135.5,113.5 135.5,26.5 Z"/>
<path style="opacity:0.259" fill="#f2f2f2" d="M 400.5,25.5 C 411.833,25.5 423.167,25.5 434.5,25.5C 424.013,26.4944 413.346,26.8278 402.5,26.5C 402.187,92.8492 402.521,159.182 403.5,225.5C 402.833,225.5 402.167,225.5 401.5,225.5C 400.51,158.862 400.177,92.1958 400.5,25.5 Z"/>
<path style="opacity:0.345" fill="#9e9e9e" d="M 688.5,26.5 C 688.328,27.4916 688.662,28.1583 689.5,28.5C 689.5,114.167 689.5,199.833 689.5,285.5C 701.833,285.5 714.167,285.5 726.5,285.5C 726.5,199.833 726.5,114.167 726.5,28.5C 726.5,27.8333 726.5,27.1667 726.5,26.5C 728.497,113.16 729.164,200.16 728.5,287.5C 714.833,287.5 701.167,287.5 687.5,287.5C 687.167,200.332 687.501,113.332 688.5,26.5 Z M 689.5,28.5 C 701.833,28.5 714.167,28.5 726.5,28.5C 726.5,114.167 726.5,199.833 726.5,285.5C 714.167,285.5 701.833,285.5 689.5,285.5C 689.5,199.833 689.5,114.167 689.5,28.5 Z"/>
<path style="opacity:0.16" fill="#fefefe" d="M 688.5,26.5 C 701.167,26.5 713.833,26.5 726.5,26.5C 726.5,27.1667 726.5,27.8333 726.5,28.5C 714.167,28.5 701.833,28.5 689.5,28.5C 688.662,28.1583 688.328,27.4916 688.5,26.5 Z"/>
<path style="opacity:0.133" fill="#cfcfcf" d="M 747.5,26.5 C 747.833,26.5 748.167,26.5 748.5,26.5C 748.5,27.1667 748.5,27.8333 748.5,28.5C 748.5,114.167 748.5,199.833 748.5,285.5C 759.014,285.172 769.347,285.506 779.5,286.5C 768.833,286.5 758.167,286.5 747.5,286.5C 747.5,199.833 747.5,113.167 747.5,26.5 Z"/>
<path style="opacity:0.198" fill="#c0c0c0" d="M 1225.5,26.5 C 1237.17,26.5 1248.83,26.5 1260.5,26.5C 1260.5,113.5 1260.5,200.5 1260.5,287.5C 1249.16,287.333 1237.83,287.5 1226.5,288C 1221.38,290.515 1219.05,294.682 1219.5,300.5C 1217.32,294.73 1218.82,290.063 1224,286.5C 1235.46,285.531 1246.96,285.198 1258.5,285.5C 1258.5,199.833 1258.5,114.167 1258.5,28.5C 1247.12,29.1436 1236.12,28.477 1225.5,26.5 Z"/>
<path style="opacity:0.177" fill="#c0c0c0" d="M 1319.5,26.5 C 1319.5,26.8333 1319.5,27.1667 1319.5,27.5C 1318.83,27.5 1318.5,27.8333 1318.5,28.5C 1305.83,28.5 1293.17,28.5 1280.5,28.5C 1280.5,77.5 1280.5,126.5 1280.5,175.5C 1280.5,176.167 1280.5,176.833 1280.5,177.5C 1279.5,127.336 1279.17,77.0028 1279.5,26.5C 1292.83,26.5 1306.17,26.5 1319.5,26.5 Z"/>
<path style="opacity:0.198" fill="#fefefe" d="M 1319.5,27.5 C 1319.5,77.5 1319.5,127.5 1319.5,177.5C 1306.5,177.5 1293.5,177.5 1280.5,177.5C 1280.5,176.833 1280.5,176.167 1280.5,175.5C 1293.17,175.5 1305.83,175.5 1318.5,175.5C 1318.5,126.5 1318.5,77.5 1318.5,28.5C 1318.5,27.8333 1318.83,27.5 1319.5,27.5 Z"/>
<path style="opacity:0.652" fill="#7d7d7d" d="M 1338.5,26.5 C 1338.83,26.5 1339.17,26.5 1339.5,26.5C 1339.17,77.0028 1339.5,127.336 1340.5,177.5C 1377.5,177.5 1414.5,177.5 1451.5,177.5C 1451.83,177.5 1452.17,177.5 1452.5,177.5C 1414.85,179.494 1376.85,180.161 1338.5,179.5C 1338.5,128.5 1338.5,77.5 1338.5,26.5 Z"/>
<path style="opacity:0.389" fill="#c9c9c9" d="M 1339.5,26.5 C 1350.17,26.5 1360.83,26.5 1371.5,26.5C 1361.89,28.4743 1351.89,29.141 1341.5,28.5C 1340.5,77.4281 1340.17,127.095 1340.5,177.5C 1339.5,127.336 1339.17,77.0028 1339.5,26.5 Z"/>
<path style="opacity:0.17" fill="#fefefe" d="M 1341.5,28.5 C 1341.5,77.5 1341.5,126.5 1341.5,175.5C 1377.83,175.5 1414.17,175.5 1450.5,175.5C 1450.5,126.5 1450.5,77.5 1450.5,28.5C 1451.5,77.4281 1451.83,127.095 1451.5,177.5C 1414.5,177.5 1377.5,177.5 1340.5,177.5C 1340.17,127.095 1340.5,77.4281 1341.5,28.5 Z"/>
<path style="opacity:0.349" fill="#c3c3c3" d="M 1417.5,26.5 C 1429.17,26.5 1440.83,26.5 1452.5,26.5C 1452.5,76.8333 1452.5,127.167 1452.5,177.5C 1452.17,177.5 1451.83,177.5 1451.5,177.5C 1451.83,127.095 1451.5,77.4281 1450.5,28.5C 1439.12,29.1436 1428.12,28.477 1417.5,26.5 Z"/>
<path style="opacity:0.719" fill="#606060" d="M 1512.5,26.5 C 1512.17,26.5 1511.83,26.5 1511.5,26.5C 1498.17,26.5 1484.83,26.5 1471.5,26.5C 1471.17,77.0028 1471.5,127.336 1472.5,177.5C 1485.66,178.496 1498.99,178.829 1512.5,178.5C 1498.76,179.83 1484.93,179.83 1471,178.5C 1470.5,127.501 1470.33,76.5011 1470.5,25.5C 1484.68,25.1709 1498.68,25.5042 1512.5,26.5 Z"/>
<path style="opacity:0.143" fill="#fefefe" d="M 1474.5,28.5 C 1474.5,77.5 1474.5,126.5 1474.5,175.5C 1486.17,175.5 1497.83,175.5 1509.5,175.5C 1509.5,126.5 1509.5,77.5 1509.5,28.5C 1510.17,28.1667 1510.83,27.8333 1511.5,27.5C 1511.5,77.5 1511.5,127.5 1511.5,177.5C 1498.5,177.5 1485.5,177.5 1472.5,177.5C 1472.33,127.499 1472.5,77.4989 1473,27.5C 1473.38,28.056 1473.88,28.3893 1474.5,28.5 Z M 1474.5,28.5 C 1486.17,28.5 1497.83,28.5 1509.5,28.5C 1509.5,77.5 1509.5,126.5 1509.5,175.5C 1497.83,175.5 1486.17,175.5 1474.5,175.5C 1474.5,126.5 1474.5,77.5 1474.5,28.5 Z"/>
<path style="opacity:0.33" fill="#dedede" d="M 1531.5,26.5 C 1542.17,26.5 1552.83,26.5 1563.5,26.5C 1553.89,28.4743 1543.89,29.141 1533.5,28.5C 1532.5,114.332 1532.17,200.332 1532.5,286.5C 1531.5,200.002 1531.17,113.335 1531.5,26.5 Z"/>
<path style="opacity:0.126" fill="#fefffe" d="M 1533.5,28.5 C 1533.5,114.167 1533.5,199.833 1533.5,285.5C 1543.68,285.173 1553.68,285.506 1563.5,286.5C 1553.17,286.5 1542.83,286.5 1532.5,286.5C 1532.17,200.332 1532.5,114.332 1533.5,28.5 Z"/>
<path style="opacity:0.467" fill="#5e5e5e" d="M 633.5,7.5 C 633.5,8.16667 633.5,8.83333 633.5,9.5C 632.504,9.41423 631.671,9.74756 631,10.5C 628.099,16.4754 629.432,21.1421 635,24.5C 646.461,25.4685 657.961,25.8018 669.5,25.5C 669.833,113.002 669.499,200.335 668.5,287.5C 668.5,287.167 668.5,286.833 668.5,286.5C 668.5,199.833 668.5,113.167 668.5,26.5C 657.5,26.5 646.5,26.5 635.5,26.5C 633.5,26.1667 631.5,25.8333 629.5,25.5C 629.167,23.5 628.833,21.5 628.5,19.5C 628.5,17.5 628.5,15.5 628.5,13.5C 628.368,9.96783 630.034,7.96783 633.5,7.5 Z"/>
<path style="opacity:0.349" fill="#9c9c9c" d="M 746.5,26.5 C 746.833,26.5 747.167,26.5 747.5,26.5C 747.5,113.167 747.5,199.833 747.5,286.5C 758.167,286.5 768.833,286.5 779.5,286.5C 781.433,286.729 783.1,287.562 784.5,289C 785.337,290.011 785.67,291.178 785.5,292.5C 784.833,292.5 784.167,292.5 783.5,292.5C 782.274,290.124 780.274,288.624 777.5,288C 767.172,287.5 756.839,287.334 746.5,287.5C 746.5,200.5 746.5,113.5 746.5,26.5 Z"/>
<path style="opacity:0.427" fill="#7f7f7f" d="M 1319.5,26.5 C 1319.83,26.5 1320.17,26.5 1320.5,26.5C 1320.5,77.1667 1320.5,127.833 1320.5,178.5C 1306.99,178.829 1293.66,178.496 1280.5,177.5C 1293.5,177.5 1306.5,177.5 1319.5,177.5C 1319.5,127.5 1319.5,77.5 1319.5,27.5C 1319.5,27.1667 1319.5,26.8333 1319.5,26.5 Z"/>
<path style="opacity:0.471" fill="#b1b1b1" d="M 1511.5,26.5 C 1511.5,26.8333 1511.5,27.1667 1511.5,27.5C 1510.83,27.8333 1510.17,28.1667 1509.5,28.5C 1497.83,28.5 1486.17,28.5 1474.5,28.5C 1473.88,28.3893 1473.38,28.056 1473,27.5C 1472.5,77.4989 1472.33,127.499 1472.5,177.5C 1471.5,127.336 1471.17,77.0028 1471.5,26.5C 1484.83,26.5 1498.17,26.5 1511.5,26.5 Z"/>
<path style="opacity:0.49" fill="#818181" d="M 1511.5,26.5 C 1511.83,26.5 1512.17,26.5 1512.5,26.5C 1512.5,77.1667 1512.5,127.833 1512.5,178.5C 1498.99,178.829 1485.66,178.496 1472.5,177.5C 1485.5,177.5 1498.5,177.5 1511.5,177.5C 1511.5,127.5 1511.5,77.5 1511.5,27.5C 1511.5,27.1667 1511.5,26.8333 1511.5,26.5 Z"/>
<path style="opacity:0.435" fill="#ababab" d="M 916.5,27.5 C 916.5,27.8333 916.5,28.1667 916.5,28.5C 911.659,31.0109 906.659,33.3443 901.5,35.5C 901.414,34.5041 901.748,33.6708 902.5,33C 906.846,30.3262 911.513,28.4928 916.5,27.5 Z"/>
<path style="opacity:0.063" fill="#cfcfcf" d="M 997.5,32.5 C 993.835,32.4982 990.835,31.1648 988.5,28.5C 988.735,27.9033 989.235,27.5699 990,27.5C 992.862,28.91 995.362,30.5767 997.5,32.5 Z"/>
<path style="opacity:0.427" fill="#b9b9b9" d="M 998.5,32.5 C 1003.8,33.3194 1008.47,35.4861 1012.5,39C 1015.94,41.0212 1018.28,43.8545 1019.5,47.5C 1012.56,42.322 1005.56,37.322 998.5,32.5 Z"/>
<path style="opacity:0.154" fill="#adadad" d="M 900.5,35.5 C 899.965,37.4456 898.632,38.4456 896.5,38.5C 896.694,36.0882 898.027,35.0882 900.5,35.5 Z"/>
<path style="opacity:0.043" fill="#bababa" d="M 895.5,38.5 C 894.544,40.5158 893.21,42.3492 891.5,44C 890.552,44.4828 889.552,44.6495 888.5,44.5C 889.578,41.0922 891.911,39.0922 895.5,38.5 Z"/>
<path style="opacity:0.145" fill="#e7e7e7" d="M 1019.5,47.5 C 1021.5,47.5 1022.5,48.5 1022.5,50.5C 1020.5,50.5 1019.5,49.5 1019.5,47.5 Z"/>
<path style="opacity:0.153" fill="#c5c5c5" d="M 1022.5,50.5 C 1024.5,50.5 1025.5,51.5 1025.5,53.5C 1023.5,53.5 1022.5,52.5 1022.5,50.5 Z"/>
<path style="opacity:0.498" fill="#b2b2b2" d="M 863.5,38.5 C 860.189,44.1524 856.856,49.8191 853.5,55.5C 853.043,56.2975 852.376,56.6309 851.5,56.5C 851.864,53.1995 853.031,50.1995 855,47.5C 857.011,43.6573 859.844,40.6573 863.5,38.5 Z"/>
<path style="opacity:0.396" fill="#999999" d="M 888.5,44.5 C 885.005,49.7381 881.339,54.7381 877.5,59.5C 878.251,54.2308 880.584,49.7308 884.5,46C 885.745,45.2086 887.078,44.7086 888.5,44.5 Z"/>
<path style="opacity:0.394" fill="#939393" d="M 1025.5,53.5 C 1027.24,64.15 1028.24,75.15 1028.5,86.5C 1027.07,86.1193 1026.24,85.1193 1026,83.5C 1025.5,73.5056 1025.33,63.5056 1025.5,53.5 Z"/>
<path style="opacity:0.384" fill="#b5b5b5" d="M 851.5,56.5 C 851.425,59.2062 851.092,61.8728 850.5,64.5C 849.833,64.5 849.167,64.5 848.5,64.5C 848.518,61.2637 849.518,58.597 851.5,56.5 Z"/>
<path style="opacity:0.065" fill="#eeeeee" d="M 848.5,65.5 C 848.843,67.4832 848.176,68.8166 846.5,69.5C 846.157,67.5168 846.824,66.1834 848.5,65.5 Z"/>
<path style="opacity:0.157" fill="#a6a6a6" d="M 568.5,65.5 C 570.495,114.489 571.162,163.822 570.5,213.5C 569.833,213.5 569.167,213.5 568.5,213.5C 568.5,164.167 568.5,114.833 568.5,65.5 Z"/>
<path style="opacity:0.435" fill="#969696" d="M 877.5,59.5 C 877.173,64.2137 877.507,68.8804 878.5,73.5C 879.768,75.3043 880.435,77.3043 880.5,79.5C 878.386,78.0929 876.886,76.0929 876,73.5C 875.833,71.1667 875.667,68.8333 875.5,66.5C 875.529,63.7305 876.195,61.3972 877.5,59.5 Z"/>
<path style="opacity:0.812" fill="#464646" d="M 848.5,64.5 C 849.167,64.5 849.833,64.5 850.5,64.5C 850.323,67.984 849.323,70.984 847.5,73.5C 847.737,72.209 847.404,71.209 846.5,70.5C 846.5,70.1667 846.5,69.8333 846.5,69.5C 848.176,68.8166 848.843,67.4832 848.5,65.5C 848.5,65.1667 848.5,64.8333 848.5,64.5 Z"/>
<path style="opacity:0.145" fill="#c9c9c9" d="M 846.5,70.5 C 847.404,71.209 847.737,72.209 847.5,73.5C 847.5,73.8333 847.5,74.1667 847.5,74.5C 846.833,77.5 846.167,80.5 845.5,83.5C 845.182,78.9677 845.515,74.6344 846.5,70.5 Z"/>
<path style="opacity:0.361" fill="#747474" d="M 847.5,74.5 C 847.207,92.5343 847.54,110.534 848.5,128.5C 847.833,128.5 847.167,128.5 846.5,128.5C 845.517,113.578 845.184,98.5781 845.5,83.5C 846.167,80.5 846.833,77.5 847.5,74.5 Z"/>
<path style="opacity:0.078" fill="#a5a5a5" d="M 1045.5,85.5 C 1045.67,86.8221 1045.34,87.9887 1044.5,89C 1039.5,92.3333 1034.5,92.3333 1029.5,89C 1028.75,88.3292 1028.41,87.4959 1028.5,86.5C 1031.39,87.7789 1034.39,88.7789 1037.5,89.5C 1040.37,88.4659 1043.04,87.1326 1045.5,85.5 Z"/>
<path style="opacity:0.361" fill="#ababab" d="M 880.5,79.5 C 881.239,79.369 881.906,79.5357 882.5,80C 886.158,85.8245 890.825,90.6578 896.5,94.5C 903.243,97.8989 909.91,101.232 916.5,104.5C 916.083,105.124 915.416,105.457 914.5,105.5C 905.86,102.574 897.86,98.4072 890.5,93C 885.832,89.4963 882.499,84.9963 880.5,79.5 Z"/>
<path style="opacity:0.263" fill="#c8c8c8" d="M 917.5,104.5 C 919.781,104.077 921.448,104.744 922.5,106.5C 920.219,106.923 918.552,106.256 917.5,104.5 Z"/>
<path style="opacity:0.078" fill="#eeeeee" d="M 928.5,107.5 C 930.483,107.157 931.817,107.824 932.5,109.5C 930.517,109.843 929.183,109.176 928.5,107.5 Z"/>
<path style="opacity:0.588" fill="#818181" d="M 923.5,106.5 C 925.292,106.366 926.958,106.699 928.5,107.5C 929.183,109.176 930.517,109.843 932.5,109.5C 932.833,109.5 933.167,109.5 933.5,109.5C 933.5,110.167 933.5,110.833 933.5,111.5C 929.314,111.237 925.981,109.571 923.5,106.5 Z"/>
<path style="opacity:0.212" fill="#a0a0a0" d="M 878.5,107.5 C 883.474,109.758 888.14,112.592 892.5,116C 896.145,117.978 899.979,119.478 904,120.5C 905.03,120.836 905.53,121.503 905.5,122.5C 895.875,120.244 887.208,116.077 879.5,110C 878.748,109.329 878.414,108.496 878.5,107.5 Z"/>
<path style="opacity:0.29" fill="#ababab" d="M 933.5,109.5 C 938.559,110.524 943.559,111.858 948.5,113.5C 949.713,113.747 950.38,114.414 950.5,115.5C 944.582,114.919 938.916,113.586 933.5,111.5C 933.5,110.833 933.5,110.167 933.5,109.5 Z"/>
<path style="opacity:0.241" fill="#dedede" d="M 952.5,115.5 C 954.099,115.232 955.432,115.566 956.5,116.5C 956.5,117.167 956.167,117.5 955.5,117.5C 953.821,117.715 952.821,117.048 952.5,115.5 Z"/>
<path style="opacity:0.05" fill="#efefef" d="M 957.5,116.5 C 959.483,116.157 960.817,116.824 961.5,118.5C 959.517,118.843 958.183,118.176 957.5,116.5 Z"/>
<path style="opacity:0.565" fill="#7a7a7a" d="M 956.5,116.5 C 956.833,116.5 957.167,116.5 957.5,116.5C 958.183,118.176 959.517,118.843 961.5,118.5C 966.31,118.778 970.643,120.111 974.5,122.5C 972.332,123.63 969.998,123.63 967.5,122.5C 963.169,121.076 959.169,119.41 955.5,117.5C 956.167,117.5 956.5,117.167 956.5,116.5 Z"/>
<path style="opacity:0.224" fill="#878787" d="M 906.5,122.5 C 910.159,122.149 913.159,123.149 915.5,125.5C 911.841,125.851 908.841,124.851 906.5,122.5 Z"/>
<path style="opacity:0.231" fill="#a5a5a5" d="M 915.5,125.5 C 919.081,125.138 922.081,126.138 924.5,128.5C 920.841,128.851 917.841,127.851 915.5,125.5 Z"/>
<path style="opacity:0.369" fill="#b5b5b5" d="M 975.5,122.5 C 979.806,123.488 984.139,124.488 988.5,125.5C 989.713,125.747 990.38,126.414 990.5,127.5C 988.5,127.5 986.5,127.5 984.5,127.5C 981.727,126.343 978.727,125.676 975.5,125.5C 975.5,124.5 975.5,123.5 975.5,122.5 Z"/>
<path style="opacity:0.58" fill="#666666" d="M 984.5,127.5 C 986.5,127.5 988.5,127.5 990.5,127.5C 990.833,127.5 991.167,127.5 991.5,127.5C 991.5,128.167 991.5,128.833 991.5,129.5C 988.99,129.073 986.657,128.407 984.5,127.5 Z"/>
<path style="opacity:0.459" fill="#9d9d9d" d="M 925.5,128.5 C 928.917,128.023 931.584,129.023 933.5,131.5C 930.264,131.482 927.597,130.482 925.5,128.5 Z"/>
<path style="opacity:0.286" fill="#c5c5c5" d="M 991.5,127.5 C 994.811,127.307 997.478,128.307 999.5,130.5C 997.435,130.483 995.435,130.15 993.5,129.5C 992.833,129.5 992.167,129.5 991.5,129.5C 991.5,128.833 991.5,128.167 991.5,127.5 Z"/>
<path style="opacity:0.388" fill="#595959" d="M 993.5,129.5 C 995.435,130.15 997.435,130.483 999.5,130.5C 999.833,130.5 1000.17,130.5 1000.5,130.5C 1000.5,131.167 1000.5,131.833 1000.5,132.5C 997.794,132.113 995.461,131.113 993.5,129.5 Z"/>
<path style="opacity:0.09" fill="#e7e7e7" d="M 846.5,128.5 C 847.167,128.5 847.833,128.5 848.5,128.5C 848.5,130.167 848.5,131.833 848.5,133.5C 846.744,132.448 846.077,130.781 846.5,128.5 Z"/>
<path style="opacity:0.071" fill="#d9d9d9" d="M 1000.5,130.5 C 1003.49,130.166 1005.82,131.166 1007.5,133.5C 1005.19,133.007 1002.86,132.674 1000.5,132.5C 1000.5,131.833 1000.5,131.167 1000.5,130.5 Z"/>
<path style="opacity:0.345" fill="#5f5f5f" d="M 848.5,128.5 C 849.458,130.302 850.125,132.302 850.5,134.5C 849.833,134.5 849.167,134.5 848.5,134.5C 848.5,134.167 848.5,133.833 848.5,133.5C 848.5,131.833 848.5,130.167 848.5,128.5 Z"/>
<path style="opacity:0.118" fill="#dadada" d="M 934.5,131.5 C 935.833,131.5 937.167,131.5 938.5,131.5C 938.5,132.167 938.5,132.833 938.5,133.5C 936.517,133.843 935.183,133.176 934.5,131.5 Z"/>
<path style="opacity:0.31" fill="#8a8a8a" d="M 938.5,131.5 C 941.015,131.769 943.015,132.769 944.5,134.5C 942.265,134.795 940.265,134.461 938.5,133.5C 938.5,132.833 938.5,132.167 938.5,131.5 Z"/>
<path style="opacity:0.506" fill="#a0a0a0" d="M 944.5,134.5 C 947.917,134.023 950.584,135.023 952.5,137.5C 949.264,137.482 946.597,136.482 944.5,134.5 Z"/>
<path style="opacity:0.355" fill="#ababab" d="M 953.5,137.5 C 956.038,137.507 958.538,137.841 961,138.5C 962.376,138.684 963.209,139.351 963.5,140.5C 960.962,140.493 958.462,140.159 956,139.5C 954.624,139.316 953.791,138.649 953.5,137.5 Z"/>
<path style="opacity:0.114" fill="#b1b1b1" d="M 1008.5,133.5 C 1010.06,133.519 1011.56,133.852 1013,134.5C 1018.18,137.355 1023.35,140.188 1028.5,143C 1031.21,144.742 1033.55,146.909 1035.5,149.5C 1030.62,148.707 1026.29,146.207 1022.5,142C 1018.99,140.482 1015.49,138.982 1012,137.5C 1010.25,136.59 1009.08,135.257 1008.5,133.5 Z"/>
<path style="opacity:0.486" fill="#898989" d="M 964.5,140.5 C 968.081,140.138 971.081,141.138 973.5,143.5C 969.841,143.851 966.841,142.851 964.5,140.5 Z"/>
<path style="opacity:0.345" fill="#979797" d="M 848.5,134.5 C 849.167,134.5 849.833,134.5 850.5,134.5C 851.654,137.479 852.82,140.479 854,143.5C 857.688,148.218 860.855,153.218 863.5,158.5C 862.504,158.586 861.671,158.252 861,157.5C 855.352,150.673 851.186,143.007 848.5,134.5 Z"/>
<path style="opacity:0.247" fill="#9a9a9a" d="M 973.5,143.5 C 977.159,143.149 980.159,144.149 982.5,146.5C 978.841,146.851 975.841,145.851 973.5,143.5 Z"/>
<path style="opacity:0.38" fill="#919191" d="M 983.5,146.5 C 986.917,146.023 989.584,147.023 991.5,149.5C 988.264,149.482 985.597,148.482 983.5,146.5 Z"/>
<path style="opacity:0.329" fill="#b6b6b6" d="M 878.5,107.5 C 874.593,106.068 871.26,103.735 868.5,100.5C 866.345,113.144 868.179,125.144 874,136.5C 879.633,143.498 885.466,150.165 891.5,156.5C 879.397,149.05 871.063,138.383 866.5,124.5C 865.411,114.854 865.245,105.188 866,95.5C 871.046,98.7156 875.213,102.716 878.5,107.5 Z"/>
<path style="opacity:0.239" fill="#aaaaaa" d="M 1036.5,149.5 C 1039.59,150.92 1041.59,153.253 1042.5,156.5C 1040.48,155.544 1038.65,154.21 1037,152.5C 1036.52,151.552 1036.35,150.552 1036.5,149.5 Z"/>
<path style="opacity:0.212" fill="#b2b2b2" d="M 892.5,156.5 C 894.5,156.5 895.5,157.5 895.5,159.5C 893.5,159.5 892.5,158.5 892.5,156.5 Z"/>
<path style="opacity:0.227" fill="#7c7c7c" d="M 1042.5,156.5 C 1044.5,156.5 1045.5,157.5 1045.5,159.5C 1045.5,157.5 1044.5,156.5 1042.5,156.5 Z"/>
<path style="opacity:0.224" fill="#909090" d="M 1045.5,159.5 C 1047.5,159.5 1048.5,160.5 1048.5,162.5C 1048.5,160.5 1047.5,159.5 1045.5,159.5 Z"/>
<path style="opacity:0.143" fill="#d7d7d7" d="M 863.5,159.5 C 865.011,160.502 866.678,161.169 868.5,161.5C 868.468,163.619 869.468,164.952 871.5,165.5C 871.5,166.5 871.5,167.5 871.5,168.5C 868.886,166.891 866.553,164.891 864.5,162.5C 863.873,161.583 863.539,160.583 863.5,159.5 Z"/>
<path style="opacity:0.129" fill="#c4c4c4" d="M 896.5,159.5 C 898.848,159.592 900.514,160.592 901.5,162.5C 898.966,162.741 897.3,161.741 896.5,159.5 Z"/>
<path style="opacity:0.325" fill="#c4c4c4" d="M 901.5,162.5 C 904.736,162.518 907.403,163.518 909.5,165.5C 906.169,165.982 903.503,164.982 901.5,162.5 Z"/>
<path style="opacity:0.125" fill="#adadad" d="M 992.5,149.5 C 1008.46,153.983 1021.96,162.317 1033,174.5C 1035.25,178.239 1036.75,182.239 1037.5,186.5C 1035.1,183.062 1032.77,179.395 1030.5,175.5C 1027.28,172.736 1024.28,169.736 1021.5,166.5C 1012.01,160.255 1002.34,154.589 992.5,149.5 Z"/>
<path style="opacity:0.431" fill="#b5b5b5" d="M 909.5,165.5 C 912.219,165.397 914.885,165.731 917.5,166.5C 918.713,166.747 919.38,167.414 919.5,168.5C 918.833,168.5 918.167,168.5 917.5,168.5C 914.284,168.655 911.617,167.655 909.5,165.5 Z"/>
<path style="opacity:0.184" fill="#737373" d="M 871.5,165.5 C 872.833,166.833 874.167,168.167 875.5,169.5C 874.833,169.5 874.167,169.5 873.5,169.5C 872.833,169.167 872.167,168.833 871.5,168.5C 871.5,167.5 871.5,166.5 871.5,165.5 Z"/>
<path style="opacity:0.573" fill="#767676" d="M 917.5,168.5 C 918.167,168.5 918.833,168.5 919.5,168.5C 921.621,168.325 923.621,168.659 925.5,169.5C 925.5,170.167 925.5,170.833 925.5,171.5C 923.199,170.94 920.866,170.44 918.5,170C 917.944,169.617 917.611,169.117 917.5,168.5 Z"/>
<path style="opacity:0.322" fill="#dedede" d="M 925.5,169.5 C 927.698,169.12 929.365,169.787 930.5,171.5C 928.833,171.5 927.167,171.5 925.5,171.5C 925.5,170.833 925.5,170.167 925.5,169.5 Z"/>
<path style="opacity:0.312" fill="#9d9d9d" d="M 930.5,171.5 C 933.811,171.307 936.478,172.307 938.5,174.5C 935.083,174.977 932.416,173.977 930.5,171.5 Z"/>
<path style="opacity:0.439" fill="#9c9c9c" d="M 1048.5,162.5 C 1049.5,162.414 1050.33,162.748 1051,163.5C 1054.07,168.687 1056.9,174.02 1059.5,179.5C 1060.27,182.115 1060.6,184.781 1060.5,187.5C 1060.5,189.167 1060.5,190.833 1060.5,192.5C 1060.17,192.5 1059.83,192.5 1059.5,192.5C 1059.51,182.826 1056.35,174.492 1050,167.5C 1049.39,165.846 1048.89,164.179 1048.5,162.5 Z"/>
<path style="opacity:0.012" fill="#bbbbbb" d="M 873.5,169.5 C 874.167,169.5 874.833,169.5 875.5,169.5C 879.818,172.572 884.152,175.739 888.5,179C 892.836,179.917 896.503,181.751 899.5,184.5C 889.083,182.392 880.416,177.392 873.5,169.5 Z"/>
<path style="opacity:0.365" fill="#c2c2c2" d="M 940.5,174.5 C 942.696,174.59 944.863,174.923 947,175.5C 948.376,175.684 949.209,176.351 949.5,177.5C 945.919,177.862 942.919,176.862 940.5,174.5 Z"/>
<path style="opacity:0.447" fill="#898989" d="M 950.5,177.5 C 951.791,177.263 952.791,177.596 953.5,178.5C 952.053,179.885 951.053,179.552 950.5,177.5 Z"/>
<path style="opacity:0.132" fill="#b8b8b8" d="M 954.5,178.5 C 956.483,178.157 957.817,178.824 958.5,180.5C 956.517,180.843 955.183,180.176 954.5,178.5 Z"/>
<path style="opacity:0.361" fill="#999999" d="M 959.5,180.5 C 963.159,180.149 966.159,181.149 968.5,183.5C 964.841,183.851 961.841,182.851 959.5,180.5 Z"/>
<path style="opacity:0.012" fill="#b8b8b8" d="M 900.5,184.5 C 902.179,184.285 903.179,184.952 903.5,186.5C 901.821,186.715 900.821,186.048 900.5,184.5 Z"/>
<path style="opacity:0.322" fill="#bcbcbc" d="M 974.5,184.5 C 976.781,184.077 978.448,184.744 979.5,186.5C 977.219,186.923 975.552,186.256 974.5,184.5 Z"/>
<path style="opacity:0.204" fill="#999999" d="M 912.5,189.5 C 909.724,188.588 907.057,187.588 904.5,186.5C 907.005,185.503 909.672,185.503 912.5,186.5C 912.5,187.5 912.5,188.5 912.5,189.5 Z"/>
<path style="opacity:0.427" fill="#9e9e9e" d="M 979.5,186.5 C 982.811,186.307 985.478,187.307 987.5,189.5C 984.284,189.655 981.617,188.655 979.5,186.5 Z"/>
<path style="opacity:0.161" fill="#fefffe" d="M 1060.5,187.5 C 1061.83,194.97 1062.5,202.804 1062.5,211C 1062.5,219.196 1061.83,227.03 1060.5,234.5C 1060.5,220.5 1060.5,206.5 1060.5,192.5C 1060.5,190.833 1060.5,189.167 1060.5,187.5 Z"/>
<path style="opacity:0.208" fill="#a4a4a4" d="M 923.5,192.5 C 919.909,192.055 916.576,191.055 913.5,189.5C 916.652,188.761 919.985,188.761 923.5,189.5C 923.5,190.5 923.5,191.5 923.5,192.5 Z"/>
<path style="opacity:0.251" fill="#b0b0b0" d="M 989.5,189.5 C 995.127,190.806 1000.29,193.14 1005,196.5C 1005.46,197.094 1005.63,197.761 1005.5,198.5C 1000.97,196.155 996.3,193.989 991.5,192C 990.619,191.292 989.953,190.458 989.5,189.5 Z"/>
<path style="opacity:0.192" fill="#d0d0d0" d="M 1037.5,187.5 C 1038.12,187.611 1038.62,187.944 1039,188.5C 1039.76,205.521 1039.59,222.521 1038.5,239.5C 1037.78,239.918 1037.28,240.584 1037,241.5C 1036.02,239.26 1035.52,236.927 1035.5,234.5C 1037.48,219.202 1038.15,203.536 1037.5,187.5 Z"/>
<path style="opacity:0.514" fill="#939393" d="M 952.5,201.5 C 943.166,198.5 933.832,195.5 924.5,192.5C 925.946,191.387 927.613,191.22 929.5,192C 937.147,194.328 944.814,196.494 952.5,198.5C 952.5,199.5 952.5,200.5 952.5,201.5 Z"/>
<path style="opacity:0.525" fill="#444444" d="M 1059.5,192.5 C 1059.83,192.5 1060.17,192.5 1060.5,192.5C 1060.5,206.5 1060.5,220.5 1060.5,234.5C 1060.5,235.833 1060.5,237.167 1060.5,238.5C 1059.83,238.5 1059.17,238.5 1058.5,238.5C 1059.36,223.184 1059.69,207.851 1059.5,192.5 Z"/>
<path style="opacity:0.227" fill="#adadad" d="M 1006.5,198.5 C 1008.93,199.415 1011.26,200.582 1013.5,202C 1014.25,202.671 1014.59,203.504 1014.5,204.5C 1010.36,204.354 1007.7,202.354 1006.5,198.5 Z"/>
<path style="opacity:0.177" fill="#999999" d="M 1280.5,197.5 C 1280.5,198.167 1280.5,198.833 1280.5,199.5C 1280.5,228.167 1280.5,256.833 1280.5,285.5C 1293.32,286.495 1306.32,286.829 1319.5,286.5C 1319.5,256.833 1319.5,227.167 1319.5,197.5C 1320.5,227.329 1320.83,257.329 1320.5,287.5C 1306.5,287.5 1292.5,287.5 1278.5,287.5C 1277.84,257.148 1278.51,227.148 1280.5,197.5 Z M 1280.5,199.5 C 1293.17,199.5 1305.83,199.5 1318.5,199.5C 1318.5,228.167 1318.5,256.833 1318.5,285.5C 1305.83,285.5 1293.17,285.5 1280.5,285.5C 1280.5,256.833 1280.5,228.167 1280.5,199.5 Z"/>
<path style="opacity:0.171" fill="#fafafa" d="M 1280.5,197.5 C 1293.5,197.5 1306.5,197.5 1319.5,197.5C 1319.5,227.167 1319.5,256.833 1319.5,286.5C 1306.32,286.829 1293.32,286.495 1280.5,285.5C 1293.17,285.5 1305.83,285.5 1318.5,285.5C 1318.5,256.833 1318.5,228.167 1318.5,199.5C 1305.83,199.5 1293.17,199.5 1280.5,199.5C 1280.5,198.833 1280.5,198.167 1280.5,197.5 Z"/>
<path style="opacity:0.389" fill="#cdcdcd" d="M 1339.5,197.5 C 1377.17,197.5 1414.83,197.5 1452.5,197.5C 1452.5,227.5 1452.5,257.5 1452.5,287.5C 1441.32,287.828 1430.32,287.495 1419.5,286.5C 1430.17,286.5 1440.83,286.5 1451.5,286.5C 1451.5,257.167 1451.5,227.833 1451.5,198.5C 1414.5,198.5 1377.5,198.5 1340.5,198.5C 1340.5,227.833 1340.5,257.167 1340.5,286.5C 1339.5,257.005 1339.17,227.338 1339.5,197.5 Z"/>
<path style="opacity:0.141" fill="#fefffe" d="M 1419.5,286.5 C 1429.65,285.506 1439.99,285.172 1450.5,285.5C 1450.5,256.833 1450.5,228.167 1450.5,199.5C 1414.17,199.5 1377.83,199.5 1341.5,199.5C 1341.5,228.167 1341.5,256.833 1341.5,285.5C 1351.68,285.173 1361.68,285.506 1371.5,286.5C 1361.17,286.5 1350.83,286.5 1340.5,286.5C 1340.5,257.167 1340.5,227.833 1340.5,198.5C 1377.5,198.5 1414.5,198.5 1451.5,198.5C 1451.5,227.833 1451.5,257.167 1451.5,286.5C 1440.83,286.5 1430.17,286.5 1419.5,286.5 Z"/>
<path style="opacity:0.471" fill="#929292" d="M 1472.5,197.5 C 1472.5,227.167 1472.5,256.833 1472.5,286.5C 1485.5,286.5 1498.5,286.5 1511.5,286.5C 1511.5,256.833 1511.5,227.167 1511.5,197.5C 1512.5,227.329 1512.83,257.329 1512.5,287.5C 1498.5,287.5 1484.5,287.5 1470.5,287.5C 1469.84,257.148 1470.51,227.148 1472.5,197.5 Z M 1474.5,199.5 C 1474.5,228.167 1474.5,256.833 1474.5,285.5C 1486.17,285.5 1497.83,285.5 1509.5,285.5C 1509.5,256.833 1509.5,228.167 1509.5,199.5C 1497.83,199.5 1486.17,199.5 1474.5,199.5 Z"/>
<path style="opacity:0.138" fill="#fcfcfc" d="M 1472.5,197.5 C 1485.5,197.5 1498.5,197.5 1511.5,197.5C 1511.5,227.167 1511.5,256.833 1511.5,286.5C 1498.5,286.5 1485.5,286.5 1472.5,286.5C 1472.5,256.833 1472.5,227.167 1472.5,197.5 Z M 1474.5,199.5 C 1474.5,228.167 1474.5,256.833 1474.5,285.5C 1486.17,285.5 1497.83,285.5 1509.5,285.5C 1509.5,256.833 1509.5,228.167 1509.5,199.5C 1497.83,199.5 1486.17,199.5 1474.5,199.5 Z"/>
<path style="opacity:0.134" fill="#fefffe" d="M 842.5,207.5 C 840.5,207.5 838.5,207.5 836.5,207.5C 836.97,206.307 837.97,205.64 839.5,205.5C 841.03,205.64 842.03,206.307 842.5,207.5 Z"/>
<path style="opacity:0.157" fill="#b5b5b5" d="M 1014.5,204.5 C 1016.5,204.5 1017.5,205.5 1017.5,207.5C 1015.5,207.5 1014.5,206.5 1014.5,204.5 Z"/>
<path style="opacity:0.524" fill="#4d4d4d" d="M 836.5,207.5 C 838.5,207.5 840.5,207.5 842.5,207.5C 843.959,207.433 845.292,207.766 846.5,208.5C 846.5,209.167 846.5,209.833 846.5,210.5C 841.828,207.835 837.161,207.835 832.5,210.5C 832.5,209.833 832.5,209.167 832.5,208.5C 833.708,207.766 835.041,207.433 836.5,207.5 Z"/>
<path style="opacity:0.122" fill="#ececec" d="M 832.5,208.5 C 832.5,209.167 832.5,209.833 832.5,210.5C 831.833,210.5 831.167,210.5 830.5,210.5C 830.5,209.167 831.167,208.5 832.5,208.5 Z"/>
<path style="opacity:0.243" fill="#a4a4a4" d="M 846.5,208.5 C 848.408,209.486 849.408,211.152 849.5,213.5C 848.833,213.5 848.167,213.5 847.5,213.5C 847.443,212.391 847.11,211.391 846.5,210.5C 846.5,209.833 846.5,209.167 846.5,208.5 Z"/>
<path style="opacity:0.725" fill="#787878" d="M 1017.5,207.5 C 1020.55,209.459 1023.38,211.792 1026,214.5C 1027.42,216.739 1028.58,219.072 1029.5,221.5C 1026.18,219.264 1023.18,216.598 1020.5,213.5C 1019.44,211.466 1018.44,209.466 1017.5,207.5 Z"/>
<path style="opacity:0.317" fill="#efefef" d="M 828.5,214.5 C 829.833,242.5 829.833,270.5 828.5,298.5C 827.167,270.5 827.167,242.5 828.5,214.5 Z"/>
<path style="opacity:0.58" fill="#2e2e2e" d="M 830.5,210.5 C 831.167,210.5 831.833,210.5 832.5,210.5C 832.013,211.473 831.513,212.473 831,213.5C 830.199,242.857 830.365,272.19 831.5,301.5C 831.167,301.5 830.833,301.5 830.5,301.5C 830.5,300.167 829.833,299.5 828.5,299.5C 828.5,299.167 828.5,298.833 828.5,298.5C 829.833,270.5 829.833,242.5 828.5,214.5C 828.527,212.801 829.194,211.467 830.5,210.5 Z"/>
<path style="opacity:0.499" fill="#4b4b4b" d="M 847.5,213.5 C 848.167,213.5 848.833,213.5 849.5,213.5C 849.5,213.833 849.5,214.167 849.5,214.5C 849.218,224.219 849.551,233.886 850.5,243.5C 849.883,243.389 849.383,243.056 849,242.5C 848.808,232.756 848.308,223.09 847.5,213.5 Z"/>
<path style="opacity:0.107" fill="#f5f5f5" d="M 568.5,213.5 C 569.167,213.5 569.833,213.5 570.5,213.5C 571.055,217.012 570.388,220.012 568.5,222.5C 568.5,221.5 568.5,220.5 568.5,219.5C 568.5,217.5 568.5,215.5 568.5,213.5 Z"/>
<path style="opacity:0.167" fill="#fdfdfd" d="M 320.5,218.5 C 321.167,218.5 321.833,218.5 322.5,218.5C 322.5,218.833 322.5,219.167 322.5,219.5C 322.5,220.833 322.5,222.167 322.5,223.5C 320.744,222.448 320.077,220.781 320.5,218.5 Z"/>
<path style="opacity:0.439" fill="#858585" d="M 568.5,219.5 C 568.5,220.5 568.5,221.5 568.5,222.5C 568.802,225.059 568.468,227.393 567.5,229.5C 566.844,228.378 566.511,227.045 566.5,225.5C 566.361,223.117 567.028,221.117 568.5,219.5 Z"/>
<path style="opacity:0.259" fill="#cecece" d="M 1029.5,222.5 C 1031.91,222.694 1032.91,224.027 1032.5,226.5C 1030.55,225.965 1029.55,224.632 1029.5,222.5 Z"/>
<path style="opacity:0.518" fill="#a2a2a2" d="M 547.5,219.5 C 548.338,219.842 548.672,220.508 548.5,221.5C 548.603,224.219 548.269,226.885 547.5,229.5C 547.253,230.713 546.586,231.38 545.5,231.5C 545.717,227.295 546.383,223.295 547.5,219.5 Z"/>
<path style="opacity:0.347" fill="#545454" d="M 401.5,225.5 C 402.167,225.5 402.833,225.5 403.5,225.5C 403.5,226.5 403.5,227.5 403.5,228.5C 403.517,230.565 403.85,232.565 404.5,234.5C 403.883,234.389 403.383,234.056 403,233.5C 402.433,230.832 401.933,228.166 401.5,225.5 Z"/>
<path style="opacity:0.112" fill="#b3b3b3" d="M 995.5,276.5 C 998.149,274.411 1001.15,272.578 1004.5,271C 1017.23,260.097 1019.23,247.43 1010.5,233C 1005.12,225.621 998.452,219.621 990.5,215C 988.132,214.21 985.966,213.044 984,211.5C 973.564,208.632 963.397,205.299 953.5,201.5C 954.097,200.861 954.93,200.528 956,200.5C 960.713,202.68 965.713,204.013 971,204.5C 985.69,208.492 998.357,215.825 1009,226.5C 1014.43,233.216 1017.6,240.883 1018.5,249.5C 1017.05,263.633 1009.38,272.633 995.5,276.5 Z"/>
<path style="opacity:0.588" fill="#6e6e6e" d="M 322.5,219.5 C 323.222,219.918 323.722,220.584 324,221.5C 324.32,225.214 324.82,228.881 325.5,232.5C 324.833,232.5 324.167,232.5 323.5,232.5C 322.597,229.609 322.264,226.609 322.5,223.5C 322.5,222.167 322.5,220.833 322.5,219.5 Z"/>
<path style="opacity:0.251" fill="#e2e2e2" d="M 1032.5,226.5 C 1034.82,228.09 1035.82,230.423 1035.5,233.5C 1034.83,233.5 1034.17,233.5 1033.5,233.5C 1033.33,231.139 1032.99,228.806 1032.5,226.5 Z"/>
<path style="opacity:0.17" fill="#c2c2c2" d="M 403.5,228.5 C 405.693,230.522 406.693,233.189 406.5,236.5C 405.167,236.5 404.5,235.833 404.5,234.5C 403.85,232.565 403.517,230.565 403.5,228.5 Z"/>
<path style="opacity:0.102" fill="#dedede" d="M 567.5,230.5 C 568.01,233.388 567.344,235.721 565.5,237.5C 565.5,236.5 565.5,235.5 565.5,234.5C 565.157,232.517 565.824,231.183 567.5,230.5 Z"/>
<path style="opacity:0.4" fill="#5f5f5f" d="M 1033.5,233.5 C 1034.17,233.5 1034.83,233.5 1035.5,233.5C 1035.5,233.833 1035.5,234.167 1035.5,234.5C 1035.52,236.927 1036.02,239.26 1037,241.5C 1037.28,240.584 1037.78,239.918 1038.5,239.5C 1038.65,240.552 1038.48,241.552 1038,242.5C 1037.33,243.833 1036.67,243.833 1036,242.5C 1035.1,239.48 1034.27,236.48 1033.5,233.5 Z"/>
<path style="opacity:0.008" fill="#b7b7b7" d="M 323.5,232.5 C 324.167,232.5 324.833,232.5 325.5,232.5C 325.5,233.5 325.5,234.5 325.5,235.5C 326.15,237.435 326.483,239.435 326.5,241.5C 324.149,239.159 323.149,236.159 323.5,232.5 Z"/>
<path style="opacity:0.382" fill="#545454" d="M 325.5,235.5 C 327.113,237.461 328.113,239.794 328.5,242.5C 327.833,242.5 327.167,242.5 326.5,242.5C 326.5,242.167 326.5,241.833 326.5,241.5C 326.483,239.435 326.15,237.435 325.5,235.5 Z"/>
<path style="opacity:0.455" fill="#c6c6c6" d="M 544.5,232.5 C 545.598,233.601 545.765,234.934 545,236.5C 542.339,241.976 539.506,247.309 536.5,252.5C 535.833,252.5 535.167,252.5 534.5,252.5C 538.032,245.887 541.365,239.22 544.5,232.5 Z"/>
<path style="opacity:0.063" fill="#cfcfcf" d="M 345.5,234.5 C 347.423,236.638 349.09,239.138 350.5,242C 351.148,243.44 351.481,244.94 351.5,246.5C 348.292,243.24 346.292,239.24 345.5,234.5 Z"/>
<path style="opacity:0.176" fill="#bfbfbf" d="M 565.5,234.5 C 565.5,235.5 565.5,236.5 565.5,237.5C 565.821,240.577 564.821,242.91 562.5,244.5C 562.998,241.513 563.498,238.513 564,235.5C 564.383,234.944 564.883,234.611 565.5,234.5 Z"/>
<path style="opacity:0.118" fill="#b1b1b1" d="M 1058.5,238.5 C 1059.17,238.5 1059.83,238.5 1060.5,238.5C 1060.85,242.159 1059.85,245.159 1057.5,247.5C 1057.51,244.455 1057.84,241.455 1058.5,238.5 Z"/>
<path style="opacity:0.055" fill="#a8a8a8" d="M 406.5,237.5 C 409.357,241.704 412.191,246.037 415,250.5C 415.483,251.448 415.649,252.448 415.5,253.5C 410.482,249.456 407.482,244.123 406.5,237.5 Z"/>
<path style="opacity:0.114" fill="#e3e3e3" d="M 849.5,214.5 C 851.31,223.111 852.144,232.111 852,241.5C 853.939,245.173 855.772,248.84 857.5,252.5C 856.833,252.5 856.167,252.5 855.5,252.5C 853.597,249.701 851.931,246.701 850.5,243.5C 849.551,233.886 849.218,224.219 849.5,214.5 Z"/>
<path style="opacity:0.271" fill="#878787" d="M 252.5,249.5 C 249.5,249.5 246.5,249.5 243.5,249.5C 244.514,248.235 246.014,247.569 248,247.5C 249.986,247.569 251.486,248.235 252.5,249.5 Z"/>
<path style="opacity:0.059" fill="#c4c4c4" d="M 351.5,246.5 C 353.408,247.486 354.408,249.152 354.5,251.5C 352.259,250.7 351.259,249.034 351.5,246.5 Z"/>
<path style="opacity:0.42" fill="#919191" d="M 1057.5,247.5 C 1057.61,250.216 1056.61,252.216 1054.5,253.5C 1054.39,250.784 1055.39,248.784 1057.5,247.5 Z"/>
<path style="opacity:0.475" fill="#656565" d="M 534.5,252.5 C 535.167,252.5 535.833,252.5 536.5,252.5C 534.549,256.115 532.215,259.448 529.5,262.5C 529.833,261.167 530.167,259.833 530.5,258.5C 531.745,256.512 533.078,254.512 534.5,252.5 Z"/>
<path style="opacity:0.321" fill="#ededed" d="M 258.5,255.5 C 259.833,269.833 259.833,284.167 258.5,298.5C 257.167,284.167 257.167,269.833 258.5,255.5 Z"/>
<path style="opacity:0.082" fill="#d4d4d4" d="M 415.5,253.5 C 421.257,258.284 426.59,263.618 431.5,269.5C 431.5,270.167 431.167,270.5 430.5,270.5C 423.696,266.367 418.696,260.7 415.5,253.5 Z"/>
<path style="opacity:0.09" fill="#898989" d="M 1054.5,253.5 C 1054.74,256.034 1053.74,257.7 1051.5,258.5C 1051.59,256.152 1052.59,254.486 1054.5,253.5 Z"/>
<path style="opacity:0.584" fill="#464646" d="M 253.5,249.5 C 254.496,249.414 255.329,249.748 256,250.5C 257.438,251.9 258.271,253.567 258.5,255.5C 257.167,269.833 257.167,284.167 258.5,298.5C 258.473,300.199 257.806,301.533 256.5,302.5C 255.833,302.5 255.167,302.5 254.5,302.5C 255.09,301.234 255.59,299.901 256,298.5C 256.667,283.833 256.667,269.167 256,254.5C 254.906,252.922 254.072,251.255 253.5,249.5 Z"/>
<path style="opacity:0.02" fill="#b2b2b2" d="M 326.5,242.5 C 327.167,242.5 327.833,242.5 328.5,242.5C 328.343,243.873 328.51,245.207 329,246.5C 331.878,250.049 333.878,254.049 335,258.5C 338.752,262.345 341.752,266.678 344,271.5C 349.475,275.965 354.309,280.965 358.5,286.5C 357.417,286.461 356.417,286.127 355.5,285.5C 345.508,276.676 337.175,266.51 330.5,255C 328.157,251.149 326.823,246.983 326.5,242.5 Z"/>
<path style="opacity:0.161" fill="#7e7e7e" d="M 1051.5,258.5 C 1051.91,260.973 1050.91,262.306 1048.5,262.5C 1048.55,260.368 1049.55,259.035 1051.5,258.5 Z"/>
<path style="opacity:0.435" fill="#aeaeae" d="M 562.5,245.5 C 562.08,249.637 560.746,253.47 558.5,257C 551.729,267.147 544.062,276.647 535.5,285.5C 532.809,287.026 530.143,288.36 527.5,289.5C 531.139,284.703 535.639,280.703 541,277.5C 548.433,266.955 555.599,256.288 562.5,245.5 Z"/>
<path style="opacity:0.384" fill="#cbcbcb" d="M 1158.5,264.5 C 1154.58,264.57 1150.91,263.903 1147.5,262.5C 1149.63,261.371 1151.96,261.204 1154.5,262C 1156.44,262.122 1157.77,262.955 1158.5,264.5 Z"/>
<path style="opacity:0.337" fill="#acacac" d="M 1145.5,262.5 C 1144.82,264.176 1143.48,264.843 1141.5,264.5C 1142.18,262.824 1143.52,262.157 1145.5,262.5 Z"/>
<path style="opacity:0.224" fill="#999999" d="M 354.5,252.5 C 361.45,259.945 368.95,266.945 377,273.5C 384.668,278.057 392.835,281.39 401.5,283.5C 402.552,285.256 404.219,285.923 406.5,285.5C 407.167,285.5 407.833,285.5 408.5,285.5C 411.64,286.641 414.973,286.808 418.5,286C 417.244,285.583 416.577,284.75 416.5,283.5C 418.2,284.016 419.533,285.016 420.5,286.5C 410.187,288.128 400.187,286.961 390.5,283C 377.205,277.085 365.705,268.585 356,257.5C 355.392,255.846 354.892,254.179 354.5,252.5 Z"/>
<path style="opacity:0.196" fill="#b3b3b3" d="M 387.5,245.5 C 389.201,246.525 390.535,248.025 391.5,250C 395.539,258.585 400.206,266.752 405.5,274.5C 404.504,274.586 403.671,274.252 403,273.5C 397.752,266.285 392.919,258.785 388.5,251C 387.767,249.234 387.433,247.401 387.5,245.5 Z"/>
<path style="opacity:0.733" fill="#a3a3a3" d="M 530.5,258.5 C 530.167,259.833 529.833,261.167 529.5,262.5C 527.009,266.641 523.342,269.308 518.5,270.5C 518.369,269.761 518.536,269.094 519,268.5C 522.641,264.807 526.475,261.473 530.5,258.5 Z"/>
<path style="opacity:0.796" fill="#3d3d3d" d="M 1145.5,262.5 C 1146.17,262.5 1146.83,262.5 1147.5,262.5C 1150.91,263.903 1154.58,264.57 1158.5,264.5C 1158.83,264.5 1159.17,264.5 1159.5,264.5C 1159.5,265.167 1159.5,265.833 1159.5,266.5C 1152.19,265.247 1144.85,265.247 1137.5,266.5C 1138.17,265.833 1138.83,265.167 1139.5,264.5C 1140.17,264.5 1140.83,264.5 1141.5,264.5C 1143.48,264.843 1144.82,264.176 1145.5,262.5 Z"/>
<path style="opacity:0.964" fill="#050505" d="M 1159.5,266.5 C 1160.83,266.833 1162.17,267.167 1163.5,267.5C 1163.83,267.5 1164.17,267.5 1164.5,267.5C 1164.5,269.5 1165.5,270.5 1167.5,270.5C 1168.09,273.691 1169.26,276.691 1171,279.5C 1172.84,290.991 1169.34,300.491 1160.5,308C 1159.55,308.483 1158.55,308.649 1157.5,308.5C 1151.85,309.78 1146.18,309.78 1140.5,308.5C 1138.14,306.655 1135.48,305.322 1132.5,304.5C 1131.21,300.903 1129.21,297.903 1126.5,295.5C 1126.5,295.167 1126.5,294.833 1126.5,294.5C 1126.5,289.5 1126.5,284.5 1126.5,279.5C 1126.5,278.833 1126.5,278.167 1126.5,277.5C 1128.45,276.965 1129.45,275.632 1129.5,273.5C 1129.5,273.167 1129.5,272.833 1129.5,272.5C 1132.45,270.878 1135.12,268.878 1137.5,266.5C 1144.85,265.247 1152.19,265.247 1159.5,266.5 Z M 1151.5,283.5 C 1151.5,284.833 1152.17,285.5 1153.5,285.5C 1153.5,286.5 1153.5,287.5 1153.5,288.5C 1151.56,289.15 1149.56,289.483 1147.5,289.5C 1147.5,287.5 1147.5,285.5 1147.5,283.5C 1148.46,281.735 1148.79,279.735 1148.5,277.5C 1149.5,277.5 1150.5,277.5 1151.5,277.5C 1151.5,279.5 1151.5,281.5 1151.5,283.5 Z"/>
<path style="opacity:0.182" fill="#a8a8a8" d="M 1159.5,264.5 C 1161.63,264.554 1162.97,265.554 1163.5,267.5C 1162.17,267.167 1160.83,266.833 1159.5,266.5C 1159.5,265.833 1159.5,265.167 1159.5,264.5 Z"/>
<path style="opacity:0.165" fill="#d6d6d6" d="M 1164.5,267.5 C 1166.5,267.5 1167.5,268.5 1167.5,270.5C 1167.5,268.5 1166.5,267.5 1164.5,267.5 Z"/>
<path style="opacity:0.059" fill="#d6d6d6" d="M 1139.5,264.5 C 1138.83,265.167 1138.17,265.833 1137.5,266.5C 1135.12,268.878 1132.45,270.878 1129.5,272.5C 1130.37,269.623 1132.04,267.29 1134.5,265.5C 1136.07,264.691 1137.74,264.357 1139.5,264.5 Z"/>
<path style="opacity:0.161" fill="#b5b5b5" d="M 855.5,252.5 C 856.167,252.5 856.833,252.5 857.5,252.5C 860.891,256.708 864.557,260.708 868.5,264.5C 874.842,268.283 880.842,272.283 886.5,276.5C 883.689,276.174 881.022,275.341 878.5,274C 874.35,270.893 870.017,268.06 865.5,265.5C 861.434,261.686 858.1,257.353 855.5,252.5 Z"/>
<path style="opacity:0.427" fill="#7e7e7e" d="M 431.5,269.5 C 433.651,270.654 435.651,271.987 437.5,273.5C 437.5,274.167 437.5,274.833 437.5,275.5C 434.883,274.214 432.55,272.547 430.5,270.5C 431.167,270.5 431.5,270.167 431.5,269.5 Z"/>
<path style="opacity:0.278" fill="#c5c5c5" d="M 1129.5,273.5 C 1129.45,275.632 1128.45,276.965 1126.5,277.5C 1126.09,275.027 1127.09,273.694 1129.5,273.5 Z"/>
<path style="opacity:0.188" fill="#bbbbbb" d="M 518.5,270.5 C 518.586,271.496 518.252,272.329 517.5,273C 510.762,277.632 503.429,280.798 495.5,282.5C 495.47,281.503 495.97,280.836 497,280.5C 500.843,279.629 504.51,278.296 508,276.5C 511.334,274.095 514.834,272.095 518.5,270.5 Z"/>
<path style="opacity:0.145" fill="#bbbbbb" d="M 887.5,276.5 C 890.577,276.179 892.91,277.179 894.5,279.5C 891.423,279.821 889.09,278.821 887.5,276.5 Z"/>
<path style="opacity:0.149" fill="#fcfcfc" d="M 850.5,276.5 C 850.833,277.167 851.167,277.833 851.5,278.5C 851.5,279.167 851.5,279.833 851.5,280.5C 852.12,286.926 851.453,292.926 849.5,298.5C 849.175,290.981 849.508,283.648 850.5,276.5 Z"/>
<path style="opacity:0.499" fill="#505050" d="M 850.5,276.5 C 849.508,283.648 849.175,290.981 849.5,298.5C 849.5,298.833 849.5,299.167 849.5,299.5C 848.833,299.5 848.167,299.5 847.5,299.5C 848.106,291.525 848.773,283.525 849.5,275.5C 850.107,275.624 850.44,275.957 850.5,276.5 Z"/>
<path style="opacity:0.153" fill="#c0c0c0" d="M 995.5,276.5 C 995.38,277.586 994.713,278.253 993.5,278.5C 988.016,280.662 982.35,281.996 976.5,282.5C 976.62,281.414 977.287,280.747 978.5,280.5C 984.005,278.429 989.672,277.096 995.5,276.5 Z"/>
<path style="opacity:0.275" fill="#dadada" d="M 900.5,280.5 C 902.483,280.157 903.817,280.824 904.5,282.5C 902.517,282.843 901.183,282.176 900.5,280.5 Z"/>
<path style="opacity:0.365" fill="#b3b3b3" d="M 437.5,273.5 C 441.726,275.313 445.893,277.313 450,279.5C 456.673,281.774 463.173,283.774 469.5,285.5C 466.5,285.5 463.5,285.5 460.5,285.5C 452.331,283.332 444.665,279.999 437.5,275.5C 437.5,274.833 437.5,274.167 437.5,273.5 Z"/>
<path style="opacity:0.116" fill="#eaeaea" d="M 488.5,283.5 C 487.082,285.308 485.082,285.975 482.5,285.5C 483.918,283.692 485.918,283.025 488.5,283.5 Z"/>
<path style="opacity:0.329" fill="#aeaeae" d="M 495.5,282.5 C 494.365,284.213 492.698,284.88 490.5,284.5C 490.5,284.167 490.5,283.833 490.5,283.5C 491.919,282.549 493.585,282.216 495.5,282.5 Z"/>
<path style="opacity:0.608" fill="#6c6c6c" d="M 895.5,279.5 C 897.216,279.629 898.883,279.962 900.5,280.5C 901.183,282.176 902.517,282.843 904.5,282.5C 906.735,282.205 908.735,282.539 910.5,283.5C 907.495,284.641 904.329,284.641 901,283.5C 898.524,282.855 896.691,281.522 895.5,279.5 Z"/>
<path style="opacity:0.4" fill="#c5c5c5" d="M 974.5,282.5 C 973.713,284.104 972.38,284.771 970.5,284.5C 966.901,285.344 963.234,285.677 959.5,285.5C 960.514,284.235 962.014,283.569 964,283.5C 967.49,283.001 970.99,282.668 974.5,282.5 Z"/>
<path style="opacity:0.271" fill="#e8e8e8" d="M 401.5,283.5 C 403.781,283.077 405.448,283.744 406.5,285.5C 404.219,285.923 402.552,285.256 401.5,283.5 Z"/>
<path style="opacity:0.138" fill="#a0a0a0" d="M 1126.5,279.5 C 1126.5,284.5 1126.5,289.5 1126.5,294.5C 1125.19,292.429 1124.52,289.929 1124.5,287C 1124.52,284.071 1125.19,281.571 1126.5,279.5 Z"/>
<path style="opacity:0.105" fill="#e9e9e9" d="M 1145.5,283.5 C 1146.17,283.5 1146.83,283.5 1147.5,283.5C 1147.5,285.5 1147.5,287.5 1147.5,289.5C 1149.56,289.483 1151.56,289.15 1153.5,288.5C 1153.59,289.496 1153.25,290.329 1152.5,291C 1150.53,291.495 1148.53,291.662 1146.5,291.5C 1146.17,290.833 1145.83,290.167 1145.5,289.5C 1145.5,287.5 1145.5,285.5 1145.5,283.5 Z"/>
<path style="opacity:0.047" fill="#d3d3d3" d="M 1151.5,283.5 C 1152.17,283.5 1152.83,283.5 1153.5,283.5C 1153.5,284.167 1153.5,284.833 1153.5,285.5C 1152.17,285.5 1151.5,284.833 1151.5,283.5 Z"/>
<path style="opacity:0.169" fill="#949494" d="M 1167.5,270.5 C 1169.28,272.466 1170.95,274.633 1172.5,277C 1176.3,289.674 1173.3,300.174 1163.5,308.5C 1161.39,309.944 1159.06,310.61 1156.5,310.5C 1156.83,309.833 1157.17,309.167 1157.5,308.5C 1158.55,308.649 1159.55,308.483 1160.5,308C 1169.34,300.491 1172.84,290.991 1171,279.5C 1169.26,276.691 1168.09,273.691 1167.5,270.5 Z"/>
<path style="opacity:0.165" fill="#cacaca" d="M 405.5,274.5 C 409.438,277.098 413.105,280.098 416.5,283.5C 416.577,284.75 417.244,285.583 418.5,286C 414.973,286.808 411.64,286.641 408.5,285.5C 410.604,285.799 412.604,285.466 414.5,284.5C 410.743,281.749 407.743,278.415 405.5,274.5 Z"/>
<path style="opacity:0.382" fill="#666666" d="M 488.5,283.5 C 489.167,283.5 489.833,283.5 490.5,283.5C 490.5,283.833 490.5,284.167 490.5,284.5C 489.666,285.748 488.333,286.415 486.5,286.5C 477.619,288.015 468.952,287.682 460.5,285.5C 463.5,285.5 466.5,285.5 469.5,285.5C 473.833,285.5 478.167,285.5 482.5,285.5C 485.082,285.975 487.082,285.308 488.5,283.5 Z"/>
<path style="opacity:0.377" fill="#ababab" d="M 634.5,286.5 C 645.833,286.5 657.167,286.5 668.5,286.5C 668.5,286.833 668.5,287.167 668.5,287.5C 656.129,287.227 643.796,287.56 631.5,288.5C 631.821,286.952 632.821,286.285 634.5,286.5 Z"/>
<path style="opacity:0.376" fill="#bbbbbb" d="M 911.5,283.5 C 925.446,285.023 939.446,285.69 953.5,285.5C 953.5,286.167 953.5,286.833 953.5,287.5C 941.829,287.667 930.162,287.5 918.5,287C 915.808,286.257 913.475,285.09 911.5,283.5 Z"/>
<path style="opacity:0.471" fill="#5b5b5b" d="M 970.5,284.5 C 970.389,285.117 970.056,285.617 969.5,286C 964.192,286.83 958.859,287.33 953.5,287.5C 953.5,286.833 953.5,286.167 953.5,285.5C 955.5,285.5 957.5,285.5 959.5,285.5C 963.234,285.677 966.901,285.344 970.5,284.5 Z"/>
<path style="opacity:0.459" fill="#7b7b7b" d="M 1145.5,283.5 C 1145.5,285.5 1145.5,287.5 1145.5,289.5C 1143.01,287.594 1143.01,285.594 1145.5,283.5 Z"/>
<path style="opacity:0.377" fill="#979797" d="M 1339.5,197.5 C 1339.17,227.338 1339.5,257.005 1340.5,286.5C 1350.83,286.5 1361.17,286.5 1371.5,286.5C 1378.24,289.526 1380.24,294.693 1377.5,302C 1375.94,303.735 1374.27,305.235 1372.5,306.5C 1374.44,303.544 1375.77,300.211 1376.5,296.5C 1376.45,292.265 1374.45,289.431 1370.5,288C 1359.84,287.5 1349.17,287.333 1338.5,287.5C 1338.17,257.329 1338.5,227.329 1339.5,197.5 Z"/>
<path style="opacity:0.64" fill="#5a5a5a" d="M 57.5,287.5 C 45.6179,288.085 33.6179,288.918 21.5,290C 20.572,290.388 19.9054,291.055 19.5,292C 18.0938,296.318 18.4272,300.485 20.5,304.5C 19.5041,304.586 18.6708,304.252 18,303.5C 16,298.833 16,294.167 18,289.5C 19.0113,288.663 20.1779,288.33 21.5,288.5C 33.4625,287.562 45.4625,287.228 57.5,287.5 Z"/>
<path style="opacity:0.502" fill="#9d9d9d" d="M 359.5,286.5 C 362.943,288.104 366.277,289.938 369.5,292C 370.823,292.816 371.489,293.983 371.5,295.5C 369.688,295.229 368.022,294.562 366.5,293.5C 364.605,291.955 362.605,290.455 360.5,289C 359.748,288.329 359.414,287.496 359.5,286.5 Z"/>
<path style="opacity:0.059" fill="#b1b1b1" d="M 851.5,278.5 C 859.117,282.488 866.117,287.154 872.5,292.5C 870.94,292.481 869.44,292.148 868,291.5C 862.652,287.558 857.152,283.891 851.5,280.5C 851.5,279.833 851.5,279.167 851.5,278.5 Z"/>
<path style="opacity:0.878" fill="#434343" d="M 1153.5,283.5 C 1154.88,283.962 1155.55,284.962 1155.5,286.5C 1154.84,288.453 1154.51,290.453 1154.5,292.5C 1151.61,292.806 1148.95,292.473 1146.5,291.5C 1148.53,291.662 1150.53,291.495 1152.5,291C 1153.25,290.329 1153.59,289.496 1153.5,288.5C 1153.5,287.5 1153.5,286.5 1153.5,285.5C 1153.5,284.833 1153.5,284.167 1153.5,283.5 Z"/>
<path style="opacity:0.175" fill="#afafaf" d="M 527.5,289.5 C 522.319,294.831 515.986,298.498 508.5,300.5C 508.414,299.504 508.748,298.671 509.5,298C 515.504,295.06 521.504,292.227 527.5,289.5 Z"/>
<path style="opacity:0.139" fill="#d5d5d5" d="M 872.5,292.5 C 875.216,292.386 877.216,293.386 878.5,295.5C 875.784,295.614 873.784,294.614 872.5,292.5 Z"/>
<path style="opacity:0.082" fill="#979797" d="M 1048.5,263.5 C 1048.46,264.583 1048.13,265.583 1047.5,266.5C 1033.33,281.903 1016.17,293.236 996,300.5C 992.542,301.286 989.042,301.62 985.5,301.5C 985.611,300.883 985.944,300.383 986.5,300C 993.477,298.336 1000.31,296.17 1007,293.5C 1015.5,288.216 1024,283.05 1032.5,278C 1037.43,272.568 1042.76,267.735 1048.5,263.5 Z"/>
<path style="opacity:0.25" fill="#f7f7f7" d="M 628.5,292.5 C 628.5,295.167 628.5,297.833 628.5,300.5C 627.252,299.666 626.585,298.333 626.5,296.5C 626.585,294.667 627.252,293.334 628.5,292.5 Z"/>
<path style="opacity:0.063" fill="#efefef" d="M 785.5,292.5 C 786.748,293.334 787.415,294.667 787.5,296.5C 787.415,298.333 786.748,299.666 785.5,300.5C 785.5,297.833 785.5,295.167 785.5,292.5 Z"/>
<path style="opacity:0.382" fill="#c0c0c0" d="M 1415.5,288.5 C 1411.59,293.581 1411.59,298.581 1415.5,303.5C 1416.11,304.391 1416.44,305.391 1416.5,306.5C 1410.7,302.906 1409.04,297.74 1411.5,291C 1412.36,289.405 1413.69,288.572 1415.5,288.5 Z"/>
<path style="opacity:0.22" fill="#cdcdcd" d="M 372.5,295.5 C 374.564,295.687 376.564,296.187 378.5,297C 381.107,298.352 383.44,299.852 385.5,301.5C 380.155,301.323 375.822,299.323 372.5,295.5 Z"/>
<path style="opacity:0.106" fill="#cccccc" d="M 879.5,295.5 C 882.461,295.464 884.794,296.464 886.5,298.5C 883.423,298.821 881.09,297.821 879.5,295.5 Z"/>
<path style="opacity:0.447" fill="#7c7c7c" d="M 631.5,288.5 C 628.833,293.833 628.833,299.167 631.5,304.5C 629.088,304.306 628.088,302.973 628.5,300.5C 628.5,297.833 628.5,295.167 628.5,292.5C 628.088,290.027 629.088,288.694 631.5,288.5 Z"/>
<path style="opacity:0.349" fill="#c6c6c6" d="M 886.5,298.5 C 889.206,298.575 891.873,298.908 894.5,299.5C 895.167,300.167 895.833,300.833 896.5,301.5C 893.962,301.493 891.462,301.159 889,300.5C 887.624,300.316 886.791,299.649 886.5,298.5 Z"/>
<path style="opacity:0.122" fill="#dbdbdb" d="M 828.5,299.5 C 829.833,299.5 830.5,300.167 830.5,301.5C 829.167,301.5 828.5,300.833 828.5,299.5 Z"/>
<path style="opacity:0.822" fill="#333333" d="M 894.5,299.5 C 902.545,300.04 910.212,301.707 917.5,304.5C 914.833,304.5 912.167,304.5 909.5,304.5C 909.167,304.5 908.833,304.5 908.5,304.5C 908.389,303.883 908.056,303.383 907.5,303C 904.243,301.957 900.91,301.457 897.5,301.5C 897.167,301.5 896.833,301.5 896.5,301.5C 895.833,300.833 895.167,300.167 894.5,299.5 Z"/>
<path style="opacity:0.235" fill="#9f9f9f" d="M 1126.5,295.5 C 1129.21,297.903 1131.21,300.903 1132.5,304.5C 1128.71,302.815 1126.71,299.815 1126.5,295.5 Z"/>
<path style="opacity:0.118" fill="#b0b0b0" d="M 507.5,300.5 C 503.793,303.516 499.459,304.849 494.5,304.5C 497.223,301.245 500.89,299.579 505.5,299.5C 506.416,299.543 507.083,299.876 507.5,300.5 Z"/>
<path style="opacity:0.078" fill="#c3c3c3" d="M 897.5,301.5 C 900.91,301.457 904.243,301.957 907.5,303C 908.056,303.383 908.389,303.883 908.5,304.5C 905.449,304.636 902.449,304.302 899.5,303.5C 898.287,303.253 897.62,302.586 897.5,301.5 Z"/>
<path style="opacity:0.365" fill="#b0b0b0" d="M 985.5,301.5 C 985.389,302.117 985.056,302.617 984.5,303C 980.23,304.075 975.897,304.575 971.5,304.5C 971.5,303.833 971.5,303.167 971.5,302.5C 976.167,302.167 980.833,301.833 985.5,301.5 Z"/>
<path style="opacity:0.196" fill="#c5c5c5" d="M 385.5,301.5 C 388.874,301.674 392.207,302.174 395.5,303C 396.056,303.383 396.389,303.883 396.5,304.5C 393.626,304.549 390.792,304.216 388,303.5C 386.624,303.316 385.791,302.649 385.5,301.5 Z"/>
<path style="opacity:0.192" fill="#bfbfbf" d="M 631.5,304.5 C 632.833,304.5 633.5,305.167 633.5,306.5C 632.167,306.5 631.5,305.833 631.5,304.5 Z"/>
<path style="opacity:0.125" fill="#f0f0f0" d="M 909.5,304.5 C 912.167,304.5 914.833,304.5 917.5,304.5C 917.5,305.167 917.5,305.833 917.5,306.5C 914.302,307.036 911.635,306.369 909.5,304.5 Z"/>
<path style="opacity:0.084" fill="#f1f1f1" d="M 970.5,304.5 C 968.721,306.344 966.388,307.01 963.5,306.5C 965.279,304.656 967.612,303.99 970.5,304.5 Z"/>
<path style="opacity:0.063" fill="#929292" d="M 20.5,304.5 C 21.8333,304.5 22.5,305.167 22.5,306.5C 21.1667,306.5 20.5,305.833 20.5,304.5 Z"/>
<path style="opacity:0.365" fill="#9a9a9a" d="M 254.5,302.5 C 255.167,302.5 255.833,302.5 256.5,302.5C 256.406,305.068 255.072,306.568 252.5,307C 175.999,307.832 99.6656,307.666 23.5,306.5C 99.3322,305.667 175.332,305.167 251.5,305C 252.571,304.148 253.571,303.315 254.5,302.5 Z"/>
<path style="opacity:0.365" fill="#969696" d="M 783.5,292.5 C 784.167,292.5 784.833,292.5 785.5,292.5C 785.5,295.167 785.5,297.833 785.5,300.5C 784.824,303.715 782.824,305.882 779.5,307C 730.998,307.832 682.665,307.665 634.5,306.5C 682.668,305.833 731.002,305.167 779.5,304.5C 784.196,301.734 785.529,297.734 783.5,292.5 Z"/>
<path style="opacity:0.075" fill="#b7b7b7" d="M 847.5,299.5 C 848.167,299.5 848.833,299.5 849.5,299.5C 846.402,307.202 841.068,309.202 833.5,305.5C 831.712,304.717 830.712,303.384 830.5,301.5C 830.833,301.5 831.167,301.5 831.5,301.5C 837.641,307.205 842.975,306.538 847.5,299.5 Z"/>
<path style="opacity:0.365" fill="#9b9b9b" d="M 971.5,302.5 C 971.5,303.167 971.5,303.833 971.5,304.5C 971.167,304.5 970.833,304.5 970.5,304.5C 967.612,303.99 965.279,304.656 963.5,306.5C 948.167,307.833 932.833,307.833 917.5,306.5C 917.5,305.833 917.5,305.167 917.5,304.5C 935.66,306.329 953.66,305.662 971.5,302.5 Z"/>
<path style="opacity:0.364" fill="#999999" d="M 1219.5,301.5 C 1221.93,301.585 1223.93,302.585 1225.5,304.5C 1274.33,305.167 1323,305.833 1371.5,306.5C 1323,307.665 1274.34,307.832 1225.5,307C 1222.95,305.691 1220.95,303.857 1219.5,301.5 Z"/>
<path style="opacity:0.365" fill="#878787" d="M 1531.5,26.5 C 1531.17,113.335 1531.5,200.002 1532.5,286.5C 1542.83,286.5 1553.17,286.5 1563.5,286.5C 1565.5,287.167 1567.5,287.833 1569.5,288.5C 1570.55,291.789 1571.05,295.122 1571,298.5C 1570.5,302.667 1568.34,305.5 1564.5,307C 1515.1,307.828 1465.76,307.661 1416.5,306.5C 1416.44,305.391 1416.11,304.391 1415.5,303.5C 1440.52,304.815 1465.69,305.482 1491,305.5C 1515.5,305.333 1540,305.167 1564.5,305C 1571.49,298.794 1571.16,293.127 1563.5,288C 1552.51,287.5 1541.51,287.333 1530.5,287.5C 1530.17,200.332 1530.5,113.332 1531.5,26.5 Z"/>
<path style="opacity:0.149" fill="#b6b6b6" d="M 397.5,304.5 C 429.168,305.825 460.835,305.825 492.5,304.5C 490.695,306.197 488.361,307.03 485.5,307C 458.833,307.667 432.167,307.667 405.5,307C 402.325,307.053 399.658,306.22 397.5,304.5 Z"/>
<path style="opacity:0.204" fill="#979797" d="M 1132.5,304.5 C 1135.48,305.322 1138.14,306.655 1140.5,308.5C 1140.83,309.167 1141.17,309.833 1141.5,310.5C 1138.54,310.045 1135.87,308.879 1133.5,307C 1132.75,306.329 1132.41,305.496 1132.5,304.5 Z"/>
<path style="opacity:0.498" fill="#6a6a6a" d="M 1140.5,308.5 C 1146.18,309.78 1151.85,309.78 1157.5,308.5C 1157.17,309.167 1156.83,309.833 1156.5,310.5C 1151.5,311.833 1146.5,311.833 1141.5,310.5C 1141.17,309.833 1140.83,309.167 1140.5,308.5 Z"/>
</svg>
